999
"DXF R12 Output" (www.mydxf.blogspot.com)
 0 
SECTION
 2 
HEADER
 9 
$ACADVER
 1 
AC1009
 9 
$EXTMIN
 10 
 0 
 20 
 0 
 9 
$EXTMAX
 10 
 8.5 
 20 
 11 
 0 
ENDSEC
 0 
SECTION
 2 
ENTITIES
0
LINE
8
Layer 1
10
0.846666
20
29.034500
11
-0.846666
21
27.341100
0
LINE
8
Layer 1
10
0.000000
20
29.598900
11
0.000000
21
26.776700
0
LINE
8
Layer 1
10
2.257780
20
27.058900
11
1.128890
21
25.930010
0
LINE
8
Layer 1
10
1.693330
20
27.623400
11
0.564440
21
26.494510
0
LINE
8
Layer 1
10
1.128890
20
28.187800
11
0.000000
21
27.058910
0
LINE
8
0
10
-14.913100
20
-226.088000
11
-15.402482
21
-229.281364
0
LINE
8
0
10
-15.402482
20
-229.281364
11
-15.676082
21
-232.229230
0
LINE
8
0
10
-15.676082
20
-232.229230
11
-15.733900
21
-234.931598
0
LINE
8
0
10
-15.733900
20
-234.931598
11
-15.575936
21
-237.388469
0
LINE
8
0
10
-15.575936
20
-237.388469
11
-15.202191
21
-239.599842
0
LINE
8
0
10
-15.202191
20
-239.599842
11
-14.612664
21
-241.565717
0
LINE
8
0
10
-14.612664
20
-241.565717
11
-13.807355
21
-243.286095
0
LINE
8
0
10
-13.807355
20
-243.286095
11
-12.786265
21
-244.760975
0
LINE
8
0
10
-12.786265
20
-244.760975
11
-11.549393
21
-245.990357
0
LINE
8
0
10
-11.549393
20
-245.990357
11
-10.096739
21
-246.974242
0
LINE
8
0
10
-10.096739
20
-246.974242
11
-8.428304
21
-247.712629
0
LINE
8
0
10
-8.428304
20
-247.712629
11
-6.544086
21
-248.205519
0
LINE
8
0
10
-6.544086
20
-248.205519
11
-4.444087
21
-248.452911
0
LINE
8
0
10
-4.444087
20
-248.452911
11
-2.128307
21
-248.454805
0
LINE
8
0
10
-2.128307
20
-248.454805
11
0.403256
21
-248.211201
0
LINE
8
0
10
0.403256
20
-248.211201
11
3.150600
21
-247.722100
0
LINE
8
0
10
3.150590
20
-247.723000
11
1.504134
21
-246.713031
0
LINE
8
0
10
1.504134
20
-246.713031
11
0.018422
21
-245.578125
0
LINE
8
0
10
0.018422
20
-245.578125
11
-1.306547
21
-244.318281
0
LINE
8
0
10
-1.306547
20
-244.318281
11
-2.470772
21
-242.933500
0
LINE
8
0
10
-2.470772
20
-242.933500
11
-3.474255
21
-241.423781
0
LINE
8
0
10
-3.474255
20
-241.423781
11
-4.316993
21
-239.789125
0
LINE
8
0
10
-4.316993
20
-239.789125
11
-4.998988
21
-238.029531
0
LINE
8
0
10
-4.998988
20
-238.029531
11
-5.520240
21
-236.145000
0
LINE
8
0
10
-5.520240
20
-236.145000
11
-4.151180
21
-238.947647
0
LINE
8
0
10
-4.151180
20
-238.947647
11
-2.560669
21
-241.416237
0
LINE
8
0
10
-2.560669
20
-241.416237
11
-0.748707
21
-243.550772
0
LINE
8
0
10
-0.748707
20
-243.550772
11
1.284705
21
-245.351250
0
LINE
8
0
10
1.284705
20
-245.351250
11
3.539568
21
-246.817672
0
LINE
8
0
10
3.539568
20
-246.817672
11
6.015881
21
-247.950038
0
LINE
8
0
10
6.015881
20
-247.950038
11
8.713645
21
-248.748347
0
LINE
8
0
10
8.713645
20
-248.748347
11
11.632860
21
-249.212600
0
LINE
8
0
10
11.632800
20
-248.146000
11
11.632800
21
-249.212000
0
LINE
8
0
10
3.857840
20
-245.777000
11
5.703872
21
-246.718971
0
LINE
8
0
10
5.703872
20
-246.718971
11
7.615050
21
-247.427735
0
LINE
8
0
10
7.615050
20
-247.427735
11
9.591372
21
-247.903291
0
LINE
8
0
10
9.591372
20
-247.903291
11
11.632840
21
-248.145640
0
LINE
8
0
10
-14.913100
20
-226.088000
11
-11.165376
21
-226.757648
0
LINE
8
0
10
-11.165376
20
-226.757648
11
-7.218773
21
-227.722175
0
LINE
8
0
10
-7.218773
20
-227.722175
11
-3.372926
21
-229.090058
0
LINE
8
0
10
-3.372926
20
-229.090058
11
-1.581421
21
-229.959157
0
LINE
8
0
10
-1.581421
20
-229.959157
11
0.072533
21
-230.969774
0
LINE
8
0
10
0.072533
20
-230.969774
11
1.551480
21
-232.135468
0
LINE
8
0
10
1.551480
20
-232.135468
11
2.817968
21
-233.469799
0
LINE
8
0
10
2.817968
20
-233.469799
11
3.834541
21
-234.986327
0
LINE
8
0
10
3.834541
20
-234.986327
11
4.563747
21
-236.698610
0
LINE
8
0
10
4.563747
20
-236.698610
11
4.968129
21
-238.620210
0
LINE
8
0
10
4.968129
20
-238.620210
11
5.010235
21
-240.764685
0
LINE
8
0
10
5.010235
20
-240.764685
11
4.652610
21
-243.145595
0
LINE
8
0
10
4.652610
20
-243.145595
11
3.857800
21
-245.776500
0
LINE
8
0
10
17.725500
20
-221.279000
11
18.432322
21
-226.602941
0
LINE
8
0
10
18.432322
20
-226.602941
11
18.547943
21
-228.994371
0
LINE
8
0
10
18.547943
20
-228.994371
11
18.505035
21
-231.205441
0
LINE
8
0
10
18.505035
20
-231.205441
11
18.303600
21
-233.236151
0
LINE
8
0
10
18.303600
20
-233.236151
11
17.943638
21
-235.086501
0
LINE
8
0
10
17.943638
20
-235.086501
11
17.425148
21
-236.756493
0
LINE
8
0
10
17.425148
20
-236.756493
11
16.748130
21
-238.246125
0
LINE
8
0
10
16.748130
20
-238.246125
11
15.912585
21
-239.555399
0
LINE
8
0
10
15.912585
20
-239.555399
11
14.918512
21
-240.684314
0
LINE
8
0
10
14.918512
20
-240.684314
11
13.765912
21
-241.632872
0
LINE
8
0
10
13.765912
20
-241.632872
11
12.454785
21
-242.401072
0
LINE
8
0
10
12.454785
20
-242.401072
11
10.985130
21
-242.988914
0
LINE
8
0
10
10.985130
20
-242.988914
11
9.356947
21
-243.396400
0
LINE
8
0
10
9.356947
20
-243.396400
11
7.570237
21
-243.623528
0
LINE
8
0
10
7.570237
20
-243.623528
11
5.625000
21
-243.670300
0
LINE
8
0
10
17.725500
20
-221.279000
11
13.549978
21
-222.037918
0
LINE
8
0
10
13.549978
20
-222.037918
11
9.170025
21
-223.174438
0
LINE
8
0
10
9.170025
20
-223.174438
11
7.031268
21
-223.930596
0
LINE
8
0
10
7.031268
20
-223.930596
11
4.994859
21
-224.836712
0
LINE
8
0
10
4.994859
20
-224.836712
11
3.111953
21
-225.911303
0
LINE
8
0
10
3.111953
20
-225.911303
11
1.433700
21
-227.172890
0
LINE
8
0
10
1.433700
20
-227.172890
11
0.387315
21
-228.200171
0
LINE
8
0
10
0.387315
20
-228.200171
11
-0.509500
21
-229.339360
0
LINE
8
0
10
-0.509474
20
-229.339000
11
0.678546
21
-230.092719
0
LINE
8
0
10
0.678546
20
-230.092719
11
2.267725
21
-231.345276
0
LINE
8
0
10
2.267725
20
-231.345276
11
3.648186
21
-232.800859
0
LINE
8
0
10
3.648186
20
-232.800859
11
4.760721
21
-234.459420
0
LINE
8
0
10
4.760721
20
-234.459420
11
5.568106
21
-236.338099
0
LINE
8
0
10
8.332690
20
-231.335000
11
7.048702
21
-233.984903
0
LINE
8
0
10
7.048702
20
-233.984903
11
5.568100
21
-236.338210
0
LINE
8
0
10
5.836240
20
-237.337000
11
6.641686
21
-235.977380
0
LINE
8
0
10
6.641686
20
-235.977380
11
7.326243
21
-234.523770
0
LINE
8
0
10
7.326243
20
-234.523770
11
8.332690
21
-231.334580
0
LINE
8
0
10
5.836240
20
-237.337000
11
6.027960
21
-238.500760
0
LINE
8
0
10
6.027960
20
-238.500760
11
6.074425
21
-240.836330
0
LINE
8
0
10
6.074425
20
-240.836330
11
5.692582
21
-243.382660
0
LINE
8
0
10
5.692582
20
-243.382660
11
5.625033
21
-243.669654
 0 
ENDSEC
 0 
EOF