  0
SECTION
  2
HEADER
  9
$ACADVER
  1
AC1018
  9
$ACADMAINTVER
 70
     0
  9
$DWGCODEPAGE
  3
ANSI_932
  9
$INSBASE
 10
0.0
 20
0.0
 30
0.0
  9
$EXTMIN
 10
1.000000000000000E+20
 20
1.000000000000000E+20
 30
1.000000000000000E+20
  9
$EXTMAX
 10
-1.000000000000000E+20
 20
-1.000000000000000E+20
 30
-1.000000000000000E+20
  9
$LIMMIN
 10
0.0
 20
0.0
  9
$LIMMAX
 10
12.0
 20
9.0
  9
$ORTHOMODE
 70
     0
  9
$REGENMODE
 70
     1
  9
$FILLMODE
 70
     1
  9
$QTEXTMODE
 70
     0
  9
$MIRRTEXT
 70
     1
  9
$LTSCALE
 40
1.0
  9
$ATTMODE
 70
     1
  9
$TEXTSIZE
 40
0.2
  9
$TRACEWID
 40
0.05
  9
$TEXTSTYLE
  7
Standard
  9
$CLAYER
  8
0
  9
$CELTYPE
  6
ByLayer
  9
$CECOLOR
 62
   256
  9
$CELTSCALE
 40
1.0
  9
$DISPSILH
 70
     0
  9
$DIMSCALE
 40
1.0
  9
$DIMASZ
 40
0.18
  9
$DIMEXO
 40
0.0625
  9
$DIMDLI
 40
0.38
  9
$DIMRND
 40
0.0
  9
$DIMDLE
 40
0.0
  9
$DIMEXE
 40
0.18
  9
$DIMTP
 40
0.0
  9
$DIMTM
 40
0.0
  9
$DIMTXT
 40
0.18
  9
$DIMCEN
 40
0.09
  9
$DIMTSZ
 40
0.0
  9
$DIMTOL
 70
     0
  9
$DIMLIM
 70
     0
  9
$DIMTIH
 70
     1
  9
$DIMTOH
 70
     1
  9
$DIMSE1
 70
     0
  9
$DIMSE2
 70
     0
  9
$DIMTAD
 70
     0
  9
$DIMZIN
 70
     0
  9
$DIMBLK
  1

  9
$DIMASO
 70
     1
  9
$DIMSHO
 70
     1
  9
$DIMPOST
  1

  9
$DIMAPOST
  1

  9
$DIMALT
 70
     0
  9
$DIMALTD
 70
     2
  9
$DIMALTF
 40
25.4
  9
$DIMLFAC
 40
1.0
  9
$DIMTOFL
 70
     0
  9
$DIMTVP
 40
0.0
  9
$DIMTIX
 70
     0
  9
$DIMSOXD
 70
     0
  9
$DIMSAH
 70
     0
  9
$DIMBLK1
  1

  9
$DIMBLK2
  1

  9
$DIMSTYLE
  2
Standard
  9
$DIMCLRD
 70
     0
  9
$DIMCLRE
 70
     0
  9
$DIMCLRT
 70
     0
  9
$DIMTFAC
 40
1.0
  9
$DIMGAP
 40
0.09
  9
$DIMJUST
 70
     0
  9
$DIMSD1
 70
     0
  9
$DIMSD2
 70
     0
  9
$DIMTOLJ
 70
     1
  9
$DIMTZIN
 70
     0
  9
$DIMALTZ
 70
     0
  9
$DIMALTTZ
 70
     0
  9
$DIMUPT
 70
     0
  9
$DIMDEC
 70
     4
  9
$DIMTDEC
 70
     4
  9
$DIMALTU
 70
     2
  9
$DIMALTTD
 70
     2
  9
$DIMTXSTY
  7
Standard
  9
$DIMAUNIT
 70
     0
  9
$DIMADEC
 70
     0
  9
$DIMALTRND
 40
0.0
  9
$DIMAZIN
 70
     0
  9
$DIMDSEP
 70
    46
  9
$DIMATFIT
 70
     3
  9
$DIMFRAC
 70
     0
  9
$DIMLDRBLK
  1

  9
$DIMLUNIT
 70
     2
  9
$DIMLWD
 70
    -2
  9
$DIMLWE
 70
    -2
  9
$DIMTMOVE
 70
     0
  9
$LUNITS
 70
     2
  9
$LUPREC
 70
     4
  9
$SKETCHINC
 40
0.1
  9
$FILLETRAD
 40
0.5
  9
$AUNITS
 70
     0
  9
$AUPREC
 70
     0
  9
$MENU
  1
.
  9
$ELEVATION
 40
0.0
  9
$PELEVATION
 40
0.0
  9
$THICKNESS
 40
0.0
  9
$LIMCHECK
 70
     0
  9
$CHAMFERA
 40
0.5
  9
$CHAMFERB
 40
0.5
  9
$CHAMFERC
 40
1.0
  9
$CHAMFERD
 40
0.0
  9
$SKPOLY
 70
     0
  9
$TDCREATE
 40
2459447.787719907
  9
$TDUCREATE
 40
2459447.746053241
  9
$TDUPDATE
 40
2459447.787719919
  9
$TDUUPDATE
 40
2459447.746053252
  9
$TDINDWG
 40
0.0000000116
  9
$TDUSRTIMER
 40
0.0000000116
  9
$USRTIMER
 70
     1
  9
$ANGBASE
 50
0.0
  9
$ANGDIR
 70
     0
  9
$PDMODE
 70
     0
  9
$PDSIZE
 40
0.0
  9
$PLINEWID
 40
0.0
  9
$SPLFRAME
 70
     0
  9
$SPLINETYPE
 70
     6
  9
$SPLINESEGS
 70
     8
  9
$HANDSEED
  5
C6
  9
$SURFTAB1
 70
     6
  9
$SURFTAB2
 70
     6
  9
$SURFTYPE
 70
     6
  9
$SURFU
 70
     6
  9
$SURFV
 70
     6
  9
$UCSBASE
  2

  9
$UCSNAME
  2

  9
$UCSORG
 10
0.0
 20
0.0
 30
0.0
  9
$UCSXDIR
 10
1.0
 20
0.0
 30
0.0
  9
$UCSYDIR
 10
0.0
 20
1.0
 30
0.0
  9
$UCSORTHOREF
  2

  9
$UCSORTHOVIEW
 70
     0
  9
$UCSORGTOP
 10
0.0
 20
0.0
 30
0.0
  9
$UCSORGBOTTOM
 10
0.0
 20
0.0
 30
0.0
  9
$UCSORGLEFT
 10
0.0
 20
0.0
 30
0.0
  9
$UCSORGRIGHT
 10
0.0
 20
0.0
 30
0.0
  9
$UCSORGFRONT
 10
0.0
 20
0.0
 30
0.0
  9
$UCSORGBACK
 10
0.0
 20
0.0
 30
0.0
  9
$PUCSBASE
  2

  9
$PUCSNAME
  2

  9
$PUCSORG
 10
0.0
 20
0.0
 30
0.0
  9
$PUCSXDIR
 10
1.0
 20
0.0
 30
0.0
  9
$PUCSYDIR
 10
0.0
 20
1.0
 30
0.0
  9
$PUCSORTHOREF
  2

  9
$PUCSORTHOVIEW
 70
     0
  9
$PUCSORGTOP
 10
0.0
 20
0.0
 30
0.0
  9
$PUCSORGBOTTOM
 10
0.0
 20
0.0
 30
0.0
  9
$PUCSORGLEFT
 10
0.0
 20
0.0
 30
0.0
  9
$PUCSORGRIGHT
 10
0.0
 20
0.0
 30
0.0
  9
$PUCSORGFRONT
 10
0.0
 20
0.0
 30
0.0
  9
$PUCSORGBACK
 10
0.0
 20
0.0
 30
0.0
  9
$USERI1
 70
     0
  9
$USERI2
 70
     0
  9
$USERI3
 70
     0
  9
$USERI4
 70
     0
  9
$USERI5
 70
     0
  9
$USERR1
 40
0.0
  9
$USERR2
 40
0.0
  9
$USERR3
 40
0.0
  9
$USERR4
 40
0.0
  9
$USERR5
 40
0.0
  9
$WORLDVIEW
 70
     1
  9
$SHADEDGE
 70
     3
  9
$SHADEDIF
 70
    70
  9
$TILEMODE
 70
     1
  9
$MAXACTVP
 70
    64
  9
$PINSBASE
 10
0.0
 20
0.0
 30
0.0
  9
$PLIMCHECK
 70
     0
  9
$PEXTMIN
 10
1.000000000000000E+20
 20
1.000000000000000E+20
 30
1.000000000000000E+20
  9
$PEXTMAX
 10
-1.000000000000000E+20
 20
-1.000000000000000E+20
 30
-1.000000000000000E+20
  9
$PLIMMIN
 10
0.0
 20
0.0
  9
$PLIMMAX
 10
12.0
 20
9.0
  9
$UNITMODE
 70
     0
  9
$VISRETAIN
 70
     1
  9
$PLINEGEN
 70
     0
  9
$PSLTSCALE
 70
     1
  9
$TREEDEPTH
 70
  3020
  9
$CMLSTYLE
  2
Standard
  9
$CMLJUST
 70
     0
  9
$CMLSCALE
 40
1.0
  9
$PROXYGRAPHICS
 70
     1
  9
$MEASUREMENT
 70
     0
  9
$CELWEIGHT
370
    -1
  9
$ENDCAPS
280
     0
  9
$JOINSTYLE
280
     0
  9
$LWDISPLAY
290
     1
  9
$INSUNITS
 70
     1
  9
$HYPERLINKBASE
  1

  9
$STYLESHEET
  1

  9
$XEDIT
290
     1
  9
$CEPSNTYPE
380
     0
  9
$PSTYLEMODE
290
     1
  9
$FINGERPRINTGUID
  2
{D5062766-BAD8-3BB7-DFE0-CD972EF4313B}
  9
$VERSIONGUID
  2
{FAEB1C32-E019-11D5-929B-00C0DF256EC4}
  9
$EXTNAMES
290
     1
  9
$PSVPSCALE
 40
0.0
  9
$OLESTARTUP
290
     0
  9
$SORTENTS
280
   127
  9
$INDEXCTL
280
     0
  9
$HIDETEXT
280
     1
  9
$XCLIPFRAME
290
     0
  9
$HALOGAP
280
     0
  9
$OBSCOLOR
 70
   257
  9
$OBSLTYPE
280
     0
  9
$INTERSECTIONDISPLAY
280
     0
  9
$INTERSECTIONCOLOR
 70
   257
  9
$DIMASSOC
280
     2
  9
$PROJECTNAME
  1

  0
ENDSEC
  0
SECTION
  2
CLASSES
  0
CLASS
  1
ACDBDICTIONARYWDFLT
  2
AcDbDictionaryWithDefault
  3
ObjectDBX Classes
 90
        0
 91
        3
280
     0
281
     0
  0
CLASS
  1
VISUALSTYLE
  2
AcDbVisualStyle
  3
ObjectDBX Classes
 90
     4095
 91
        3
280
     0
281
     0
  0
ENDSEC
  0
SECTION
  2
TABLES
  0
TABLE
  2
VPORT
  5
8
330
0
100
AcDbSymbolTable
 70
     1
  0
VPORT
  5
29
330
8
100
AcDbSymbolTableRecord
100
AcDbViewportTableRecord
  2
*Active
 70
     0
 10
0.0
 20
0.0
 11
1.0
 21
1.0
 12
0.0
 22
0.0
 13
0.0
 23
0.0
 14
0.5
 24
0.5
 15
0.5
 25
0.5
 16
0.0
 26
0.0
 36
1.0
 17
50.3330078125
 27
-24.83349609375
 37
0.0
 40
50.3330078125
 41
2.0
 42
50.0
 43
0.0
 44
0.0
 50
0.0
 51
0.0
 71
     0
 72
   100
 73
     1
 74
     3
 75
     0
 76
     0
 77
     0
 78
     0
281
     0
 65
     1
110
0.0
120
0.0
130
0.0
111
1.0
121
0.0
131
0.0
112
0.0
122
1.0
132
0.0
 79
     0
146
0.0
  0
ENDTAB
  0
TABLE
  2
LTYPE
  5
5
330
0
100
AcDbSymbolTable
 70
     1
  0
LTYPE
  5
14
330
5
100
AcDbSymbolTableRecord
100
AcDbLinetypeTableRecord
  2
ByBlock
 70
     0
  3

 72
    65
 73
     0
 40
0.0
  0
LTYPE
  5
15
330
5
100
AcDbSymbolTableRecord
100
AcDbLinetypeTableRecord
  2
ByLayer
 70
     0
  3

 72
    65
 73
     0
 40
0.0
  0
LTYPE
  5
16
330
5
100
AcDbSymbolTableRecord
100
AcDbLinetypeTableRecord
  2
Continuous
 70
     0
  3
Solid line
 72
    65
 73
     0
 40
0.0
  0
ENDTAB
  0
TABLE
  2
LAYER
  5
2
330
0
100
AcDbSymbolTable
 70
     2
  0
LAYER
  5
10
330
2
100
AcDbSymbolTableRecord
100
AcDbLayerTableRecord
  2
0
 70
     0
 62
     7
  6
Continuous
370
    -3
390
F
  0
LAYER
  5
3B
330
2
100
AcDbSymbolTableRecord
100
AcDbLayerTableRecord
  2
Layer 1
 70
     0
 62
     7
  6
Continuous
370
    -3
390
F
  0
ENDTAB
  0
TABLE
  2
STYLE
  5
3
330
0
100
AcDbSymbolTable
 70
     1
  0
STYLE
  5
11
330
3
100
AcDbSymbolTableRecord
100
AcDbTextStyleTableRecord
  2
Standard
 70
     0
 40
0.0
 41
1.0
 50
0.0
 71
     0
 42
0.2
  3
txt
  4

  0
ENDTAB
  0
TABLE
  2
VIEW
  5
6
330
0
100
AcDbSymbolTable
 70
     0
  0
ENDTAB
  0
TABLE
  2
UCS
  5
7
330
0
100
AcDbSymbolTable
 70
     0
  0
ENDTAB
  0
TABLE
  2
APPID
  5
9
330
0
100
AcDbSymbolTable
 70
     1
  0
APPID
  5
12
330
9
100
AcDbSymbolTableRecord
100
AcDbRegAppTableRecord
  2
ACAD
 70
     0
  0
ENDTAB
  0
TABLE
  2
DIMSTYLE
  5
A
330
0
100
AcDbSymbolTable
 70
     1
100
AcDbDimStyleTable
  0
DIMSTYLE
105
27
330
A
100
AcDbSymbolTableRecord
100
AcDbDimStyleTableRecord
  2
Standard
 70
     0
340
11
  0
ENDTAB
  0
TABLE
  2
BLOCK_RECORD
  5
1
330
0
100
AcDbSymbolTable
 70
     1
  0
BLOCK_RECORD
  5
1F
330
1
100
AcDbSymbolTableRecord
100
AcDbBlockTableRecord
  2
*Model_Space
340
22
  0
BLOCK_RECORD
  5
1B
330
1
100
AcDbSymbolTableRecord
100
AcDbBlockTableRecord
  2
*Paper_Space
340
1E
  0
BLOCK_RECORD
  5
23
330
1
100
AcDbSymbolTableRecord
100
AcDbBlockTableRecord
  2
*Paper_Space0
340
26
  0
ENDTAB
  0
ENDSEC
  0
SECTION
  2
BLOCKS
  0
BLOCK
  5
20
330
1F
100
AcDbEntity
  8
0
100
AcDbBlockBegin
  2
*Model_Space
 70
     0
 71
     0
 10
0.0
 20
0.0
 30
0.0
  3
*Model_Space
  1

  0
ENDBLK
  5
21
330
1F
100
AcDbEntity
  8
0
100
AcDbBlockEnd
  0
BLOCK
  5
1C
330
1B
100
AcDbEntity
 67
     1
  8
0
100
AcDbBlockBegin
  2
*Paper_Space
 70
     0
 71
     0
 10
0.0
 20
0.0
 30
0.0
  3
*Paper_Space
  1

  0
ENDBLK
  5
1D
330
1B
100
AcDbEntity
 67
     1
  8
0
100
AcDbBlockEnd
  0
BLOCK
  5
24
330
23
100
AcDbEntity
  8
0
100
AcDbBlockBegin
  2
*Paper_Space0
 70
     0
 71
     0
 10
0.0
 20
0.0
 30
0.0
  3
*Paper_Space0
  1

  0
ENDBLK
  5
25
330
23
100
AcDbEntity
  8
0
100
AcDbBlockEnd
  0
ENDSEC
  0
SECTION
  2
ENTITIES
  0
POLYLINE
  5
3C
330
1F
100
AcDbEntity
  8
Layer 1
370
     0
100
AcDb2dPolyline
 66
     1
 10
0.0
 20
0.0
 30
0.0
  0
VERTEX
  5
3D
330
3C
100
AcDbEntity
  8
Layer 1
370
     0
100
AcDbVertex
100
AcDb2dVertex
 10
22.0
 20
-31.0
 30
0.0
  0
VERTEX
  5
3E
330
3C
100
AcDbEntity
  8
Layer 1
370
     0
100
AcDbVertex
100
AcDb2dVertex
 10
33.0
 20
-31.0
 30
0.0
  0
VERTEX
  5
3F
330
3C
100
AcDbEntity
  8
Layer 1
370
     0
100
AcDbVertex
100
AcDb2dVertex
 10
33.0
 20
-28.033203125
 30
0.0
  0
VERTEX
  5
40
330
3C
100
AcDbEntity
  8
Layer 1
370
     0
100
AcDbVertex
100
AcDb2dVertex
 10
22.0
 20
-28.033203125
 30
0.0
  0
VERTEX
  5
41
330
3C
100
AcDbEntity
  8
Layer 1
370
     0
100
AcDbVertex
100
AcDb2dVertex
 10
22.0
 20
-31.0
 30
0.0
  0
SEQEND
  5
42
330
3C
100
AcDbEntity
  8
Layer 1
370
     0
  0
HATCH
  5
43
330
1F
100
AcDbEntity
  8
Layer 1
 62
     7
420
 16777215
100
AcDbHatch
 10
0.0
 20
0.0
 30
0.0
210
0.0
220
0.0
230
1.0
  2
SOLID
 70
     1
 71
     0
 91
        1
 92
        1
 93
        4
 72
     1
 10
22.0
 20
-31.0
 11
33.0
 21
-31.0
 72
     1
 10
33.0
 20
-31.0
 11
33.0
 21
-28.033203125
 72
     1
 10
33.0
 20
-28.033203125
 11
22.0
 21
-28.033203125
 72
     1
 10
22.0
 20
-28.033203125
 11
22.0
 21
-31.0
 97
        0
 75
     2
 76
     1
 98
        0
  0
POLYLINE
  5
44
330
1F
100
AcDbEntity
  8
Layer 1
370
     0
100
AcDb2dPolyline
 66
     1
 10
0.0
 20
0.0
 30
0.0
  0
VERTEX
  5
45
330
44
100
AcDbEntity
  8
Layer 1
370
     0
100
AcDbVertex
100
AcDb2dVertex
 10
22.0
 20
-21.966796875
 30
0.0
  0
VERTEX
  5
46
330
44
100
AcDbEntity
  8
Layer 1
370
     0
100
AcDbVertex
100
AcDb2dVertex
 10
33.0
 20
-21.966796875
 30
0.0
  0
VERTEX
  5
47
330
44
100
AcDbEntity
  8
Layer 1
370
     0
100
AcDbVertex
100
AcDb2dVertex
 10
33.0
 20
-19.0
 30
0.0
  0
VERTEX
  5
48
330
44
100
AcDbEntity
  8
Layer 1
370
     0
100
AcDbVertex
100
AcDb2dVertex
 10
22.0
 20
-19.0
 30
0.0
  0
VERTEX
  5
49
330
44
100
AcDbEntity
  8
Layer 1
370
     0
100
AcDbVertex
100
AcDb2dVertex
 10
22.0
 20
-21.966796875
 30
0.0
  0
SEQEND
  5
4A
330
44
100
AcDbEntity
  8
Layer 1
370
     0
  0
HATCH
  5
4B
330
1F
100
AcDbEntity
  8
Layer 1
 62
     7
420
 16777215
100
AcDbHatch
 10
0.0
 20
0.0
 30
0.0
210
0.0
220
0.0
230
1.0
  2
SOLID
 70
     1
 71
     0
 91
        1
 92
        1
 93
        4
 72
     1
 10
22.0
 20
-21.966796875
 11
33.0
 21
-21.966796875
 72
     1
 10
33.0
 20
-21.966796875
 11
33.0
 21
-19.0
 72
     1
 10
33.0
 20
-19.0
 11
22.0
 21
-19.0
 72
     1
 10
22.0
 20
-19.0
 11
22.0
 21
-21.966796875
 97
        0
 75
     2
 76
     1
 98
        0
  0
POLYLINE
  5
4C
330
1F
100
AcDbEntity
  8
Layer 1
370
     0
100
AcDb2dPolyline
 66
     1
 10
0.0
 20
0.0
 30
0.0
  0
VERTEX
  5
4D
330
4C
100
AcDbEntity
  8
Layer 1
370
     0
100
AcDbVertex
100
AcDb2dVertex
 10
22.0
 20
-13.0
 30
0.0
  0
VERTEX
  5
4E
330
4C
100
AcDbEntity
  8
Layer 1
370
     0
100
AcDbVertex
100
AcDb2dVertex
 10
33.0
 20
-13.0
 30
0.0
  0
VERTEX
  5
4F
330
4C
100
AcDbEntity
  8
Layer 1
370
     0
100
AcDbVertex
100
AcDb2dVertex
 10
33.0
 20
-10.033203125
 30
0.0
  0
VERTEX
  5
50
330
4C
100
AcDbEntity
  8
Layer 1
370
     0
100
AcDbVertex
100
AcDb2dVertex
 10
22.0
 20
-10.033203125
 30
0.0
  0
VERTEX
  5
51
330
4C
100
AcDbEntity
  8
Layer 1
370
     0
100
AcDbVertex
100
AcDb2dVertex
 10
22.0
 20
-13.0
 30
0.0
  0
SEQEND
  5
52
330
4C
100
AcDbEntity
  8
Layer 1
370
     0
  0
HATCH
  5
53
330
1F
100
AcDbEntity
  8
Layer 1
 62
     7
420
 16777215
100
AcDbHatch
 10
0.0
 20
0.0
 30
0.0
210
0.0
220
0.0
230
1.0
  2
SOLID
 70
     1
 71
     0
 91
        1
 92
        1
 93
        4
 72
     1
 10
22.0
 20
-13.0
 11
33.0
 21
-13.0
 72
     1
 10
33.0
 20
-13.0
 11
33.0
 21
-10.033203125
 72
     1
 10
33.0
 20
-10.033203125
 11
22.0
 21
-10.033203125
 72
     1
 10
22.0
 20
-10.033203125
 11
22.0
 21
-13.0
 97
        0
 75
     2
 76
     1
 98
        0
  0
POLYLINE
  5
54
330
1F
100
AcDbEntity
  8
Layer 1
370
     0
100
AcDb2dPolyline
 66
     1
 10
0.0
 20
0.0
 30
0.0
  0
VERTEX
  5
55
330
54
100
AcDbEntity
  8
Layer 1
370
     0
100
AcDbVertex
100
AcDb2dVertex
 10
15.0
 20
-31.0
 30
0.0
  0
VERTEX
  5
56
330
54
100
AcDbEntity
  8
Layer 1
370
     0
100
AcDbVertex
100
AcDb2dVertex
 10
18.0
 20
-31.0
 30
0.0
  0
VERTEX
  5
57
330
54
100
AcDbEntity
  8
Layer 1
370
     0
100
AcDbVertex
100
AcDb2dVertex
 10
18.0
 20
-19.0
 30
0.0
  0
VERTEX
  5
58
330
54
100
AcDbEntity
  8
Layer 1
370
     0
100
AcDbVertex
100
AcDb2dVertex
 10
15.0
 20
-19.0
 30
0.0
  0
VERTEX
  5
59
330
54
100
AcDbEntity
  8
Layer 1
370
     0
100
AcDbVertex
100
AcDb2dVertex
 10
15.0
 20
-31.0
 30
0.0
  0
SEQEND
  5
5A
330
54
100
AcDbEntity
  8
Layer 1
370
     0
  0
HATCH
  5
5B
330
1F
100
AcDbEntity
  8
Layer 1
 62
     7
420
 16777215
100
AcDbHatch
 10
0.0
 20
0.0
 30
0.0
210
0.0
220
0.0
230
1.0
  2
SOLID
 70
     1
 71
     0
 91
        1
 92
        1
 93
        4
 72
     1
 10
15.0
 20
-31.0
 11
18.0
 21
-31.0
 72
     1
 10
18.0
 20
-31.0
 11
18.0
 21
-19.0
 72
     1
 10
18.0
 20
-19.0
 11
15.0
 21
-19.0
 72
     1
 10
15.0
 20
-19.0
 11
15.0
 21
-31.0
 97
        0
 75
     2
 76
     1
 98
        0
  0
POLYLINE
  5
5C
330
1F
100
AcDbEntity
  8
Layer 1
370
     0
100
AcDb2dPolyline
 66
     1
 10
0.0
 20
0.0
 30
0.0
  0
VERTEX
  5
5D
330
5C
100
AcDbEntity
  8
Layer 1
370
     0
100
AcDbVertex
100
AcDb2dVertex
 10
2.01904296875
 20
-10.02001953125
 30
0.0
  0
VERTEX
  5
5E
330
5C
100
AcDbEntity
  8
Layer 1
370
     0
100
AcDbVertex
100
AcDb2dVertex
 10
5.0
 20
-10.0
 30
0.0
  0
VERTEX
  5
5F
330
5C
100
AcDbEntity
  8
Layer 1
370
     0
100
AcDbVertex
100
AcDb2dVertex
 10
5.0
 20
-19.0
 30
0.0
  0
VERTEX
  5
60
330
5C
100
AcDbEntity
  8
Layer 1
370
     0
100
AcDbVertex
100
AcDb2dVertex
 10
2.0
 20
-19.0
 30
0.0
  0
VERTEX
  5
61
330
5C
100
AcDbEntity
  8
Layer 1
370
     0
100
AcDbVertex
100
AcDb2dVertex
 10
2.01904296875
 20
-10.02001953125
 30
0.0
  0
SEQEND
  5
62
330
5C
100
AcDbEntity
  8
Layer 1
370
     0
  0
HATCH
  5
63
330
1F
100
AcDbEntity
  8
Layer 1
 62
     7
420
 16777215
100
AcDbHatch
 10
0.0
 20
0.0
 30
0.0
210
0.0
220
0.0
230
1.0
  2
SOLID
 70
     1
 71
     0
 91
        1
 92
        1
 93
        4
 72
     1
 10
2.01904296875
 20
-10.02001953125
 11
5.0
 21
-10.0
 72
     1
 10
5.0
 20
-10.0
 11
5.0
 21
-19.0
 72
     1
 10
5.0
 20
-19.0
 11
2.0
 21
-19.0
 72
     1
 10
2.0
 20
-19.0
 11
2.01904296875
 21
-10.02001953125
 97
        0
 75
     2
 76
     1
 98
        0
  0
POLYLINE
  5
64
330
1F
100
AcDbEntity
  8
Layer 1
370
     0
100
AcDb2dPolyline
 66
     1
 10
0.0
 20
0.0
 30
0.0
  0
VERTEX
  5
65
330
64
100
AcDbEntity
  8
Layer 1
370
     0
100
AcDbVertex
100
AcDb2dVertex
 10
15.0
 20
-31.0
 30
0.0
  0
VERTEX
  5
66
330
64
100
AcDbEntity
  8
Layer 1
370
     0
100
AcDbVertex
100
AcDb2dVertex
 10
5.0
 20
-15.0
 30
0.0
  0
VERTEX
  5
67
330
64
100
AcDbEntity
  8
Layer 1
370
     0
100
AcDbVertex
100
AcDb2dVertex
 10
5.0
 20
-10.0
 30
0.0
  0
VERTEX
  5
68
330
64
100
AcDbEntity
  8
Layer 1
370
     0
100
AcDbVertex
100
AcDb2dVertex
 10
15.0
 20
-26.0
 30
0.0
  0
VERTEX
  5
69
330
64
100
AcDbEntity
  8
Layer 1
370
     0
100
AcDbVertex
100
AcDb2dVertex
 10
15.0
 20
-31.0
 30
0.0
  0
SEQEND
  5
6A
330
64
100
AcDbEntity
  8
Layer 1
370
     0
  0
HATCH
  5
6B
330
1F
100
AcDbEntity
  8
Layer 1
 62
     7
420
 16777215
100
AcDbHatch
 10
0.0
 20
0.0
 30
0.0
210
0.0
220
0.0
230
1.0
  2
SOLID
 70
     1
 71
     0
 91
        1
 92
        1
 93
        4
 72
     1
 10
15.0
 20
-31.0
 11
5.0
 21
-15.0
 72
     1
 10
5.0
 20
-15.0
 11
5.0
 21
-10.0
 72
     1
 10
5.0
 20
-10.0
 11
15.0
 21
-26.0
 72
     1
 10
15.0
 20
-26.0
 11
15.0
 21
-31.0
 97
        0
 75
     2
 76
     1
 98
        0
  0
POLYLINE
  5
6C
330
1F
100
AcDbEntity
  8
Layer 1
370
     0
100
AcDb2dPolyline
 66
     1
 10
0.0
 20
0.0
 30
0.0
  0
VERTEX
  5
6D
330
6C
100
AcDbEntity
  8
Layer 1
370
     0
100
AcDbVertex
100
AcDb2dVertex
 10
57.0
 20
-19.0
 30
0.0
  0
VERTEX
  5
6E
330
6C
100
AcDbEntity
  8
Layer 1
370
     0
100
AcDbVertex
100
AcDb2dVertex
 10
54.0
 20
-10.0
 30
0.0
  0
VERTEX
  5
6F
330
6C
100
AcDbEntity
  8
Layer 1
370
     0
100
AcDbVertex
100
AcDb2dVertex
 10
51.0
 20
-10.0
 30
0.0
  0
VERTEX
  5
70
330
6C
100
AcDbEntity
  8
Layer 1
370
     0
100
AcDbVertex
100
AcDb2dVertex
 10
54.0
 20
-19.0
 30
0.0
  0
SEQEND
  5
71
330
6C
100
AcDbEntity
  8
Layer 1
370
     0
  0
HATCH
  5
72
330
1F
100
AcDbEntity
  8
Layer 1
 62
     7
420
 16777215
100
AcDbHatch
 10
0.0
 20
0.0
 30
0.0
210
0.0
220
0.0
230
1.0
  2
SOLID
 70
     1
 71
     0
 91
        1
 92
        1
 93
        4
 72
     1
 10
57.0
 20
-19.0
 11
54.0
 21
-10.0
 72
     1
 10
54.0
 20
-10.0
 11
51.0
 21
-10.0
 72
     1
 10
51.0
 20
-10.0
 11
54.0
 21
-19.0
 72
     1
 10
54.0
 20
-19.0
 11
57.0
 21
-19.0
 97
        0
 75
     2
 76
     1
 98
        0
  0
POLYLINE
  5
73
330
1F
100
AcDbEntity
  8
Layer 1
370
     0
100
AcDb2dPolyline
 66
     1
 10
0.0
 20
0.0
 30
0.0
  0
VERTEX
  5
74
330
73
100
AcDbEntity
  8
Layer 1
370
     0
100
AcDbVertex
100
AcDb2dVertex
 10
65.0
 20
-19.0
 30
0.0
  0
VERTEX
  5
75
330
73
100
AcDbEntity
  8
Layer 1
370
     0
100
AcDbVertex
100
AcDb2dVertex
 10
68.0
 20
-10.0
 30
0.0
  0
VERTEX
  5
76
330
73
100
AcDbEntity
  8
Layer 1
370
     0
100
AcDbVertex
100
AcDb2dVertex
 10
65.0
 20
-10.0
 30
0.0
  0
VERTEX
  5
77
330
73
100
AcDbEntity
  8
Layer 1
370
     0
100
AcDbVertex
100
AcDb2dVertex
 10
62.0
 20
-19.0
 30
0.0
  0
SEQEND
  5
78
330
73
100
AcDbEntity
  8
Layer 1
370
     0
  0
HATCH
  5
79
330
1F
100
AcDbEntity
  8
Layer 1
 62
     7
420
 16777215
100
AcDbHatch
 10
0.0
 20
0.0
 30
0.0
210
0.0
220
0.0
230
1.0
  2
SOLID
 70
     1
 71
     0
 91
        1
 92
        1
 93
        4
 72
     1
 10
65.0
 20
-19.0
 11
68.0
 21
-10.0
 72
     1
 10
68.0
 20
-10.0
 11
65.0
 21
-10.0
 72
     1
 10
65.0
 20
-10.0
 11
62.0
 21
-19.0
 72
     1
 10
62.0
 20
-19.0
 11
65.0
 21
-19.0
 97
        0
 75
     2
 76
     1
 98
        0
  0
POLYLINE
  5
7A
330
1F
100
AcDbEntity
  8
Layer 1
370
     0
100
AcDb2dPolyline
 66
     1
 10
0.0
 20
0.0
 30
0.0
  0
VERTEX
  5
7B
330
7A
100
AcDbEntity
  8
Layer 1
370
     0
100
AcDbVertex
100
AcDb2dVertex
 10
89.0
 20
-19.0
 30
0.0
  0
VERTEX
  5
7C
330
7A
100
AcDbEntity
  8
Layer 1
370
     0
100
AcDbVertex
100
AcDb2dVertex
 10
89.0
 20
-10.0
 30
0.0
  0
VERTEX
  5
7D
330
7A
100
AcDbEntity
  8
Layer 1
370
     0
100
AcDbVertex
100
AcDb2dVertex
 10
86.0
 20
-10.0
 30
0.0
  0
VERTEX
  5
7E
330
7A
100
AcDbEntity
  8
Layer 1
370
     0
100
AcDbVertex
100
AcDb2dVertex
 10
86.0
 20
-19.0
 30
0.0
  0
VERTEX
  5
7F
330
7A
100
AcDbEntity
  8
Layer 1
370
     0
100
AcDbVertex
100
AcDb2dVertex
 10
89.0
 20
-19.0
 30
0.0
  0
SEQEND
  5
80
330
7A
100
AcDbEntity
  8
Layer 1
370
     0
  0
HATCH
  5
81
330
1F
100
AcDbEntity
  8
Layer 1
 62
     7
420
 16777215
100
AcDbHatch
 10
0.0
 20
0.0
 30
0.0
210
0.0
220
0.0
230
1.0
  2
SOLID
 70
     1
 71
     0
 91
        1
 92
        1
 93
        4
 72
     1
 10
89.0
 20
-19.0
 11
89.0
 21
-10.0
 72
     1
 10
89.0
 20
-10.0
 11
86.0
 21
-10.0
 72
     1
 10
86.0
 20
-10.0
 11
86.0
 21
-19.0
 72
     1
 10
86.0
 20
-19.0
 11
89.0
 21
-19.0
 97
        0
 75
     2
 76
     1
 98
        0
  0
POLYLINE
  5
82
330
1F
100
AcDbEntity
  8
Layer 1
370
     0
100
AcDb2dPolyline
 66
     1
 10
0.0
 20
0.0
 30
0.0
  0
VERTEX
  5
83
330
82
100
AcDbEntity
  8
Layer 1
370
     0
100
AcDbVertex
100
AcDb2dVertex
 10
80.0
 20
-31.0
 30
0.0
  0
VERTEX
  5
84
330
82
100
AcDbEntity
  8
Layer 1
370
     0
100
AcDbVertex
100
AcDb2dVertex
 10
83.0
 20
-31.0
 30
0.0
  0
VERTEX
  5
85
330
82
100
AcDbEntity
  8
Layer 1
370
     0
100
AcDbVertex
100
AcDb2dVertex
 10
79.0
 20
-19.0
 30
0.0
  0
VERTEX
  5
86
330
82
100
AcDbEntity
  8
Layer 1
370
     0
100
AcDbVertex
100
AcDb2dVertex
 10
76.0
 20
-19.0
 30
0.0
  0
SEQEND
  5
87
330
82
100
AcDbEntity
  8
Layer 1
370
     0
  0
HATCH
  5
88
330
1F
100
AcDbEntity
  8
Layer 1
 62
     7
420
 16777215
100
AcDbHatch
 10
0.0
 20
0.0
 30
0.0
210
0.0
220
0.0
230
1.0
  2
SOLID
 70
     1
 71
     0
 91
        1
 92
        1
 93
        4
 72
     1
 10
80.0
 20
-31.0
 11
83.0
 21
-31.0
 72
     1
 10
83.0
 20
-31.0
 11
79.0
 21
-19.0
 72
     1
 10
79.0
 20
-19.0
 11
76.0
 21
-19.0
 72
     1
 10
76.0
 20
-19.0
 11
80.0
 21
-31.0
 97
        0
 75
     2
 76
     1
 98
        0
  0
POLYLINE
  5
89
330
1F
100
AcDbEntity
  8
Layer 1
370
     0
100
AcDb2dPolyline
 66
     1
 10
0.0
 20
0.0
 30
0.0
  0
VERTEX
  5
8A
330
89
100
AcDbEntity
  8
Layer 1
370
     0
100
AcDbVertex
100
AcDb2dVertex
 10
73.0
 20
-19.0
 30
0.0
  0
VERTEX
  5
8B
330
89
100
AcDbEntity
  8
Layer 1
370
     0
100
AcDbVertex
100
AcDb2dVertex
 10
70.0
 20
-19.0
 30
0.0
  0
VERTEX
  5
8C
330
89
100
AcDbEntity
  8
Layer 1
370
     0
100
AcDbVertex
100
AcDb2dVertex
 10
66.0
 20
-31.0
 30
0.0
  0
VERTEX
  5
8D
330
89
100
AcDbEntity
  8
Layer 1
370
     0
100
AcDbVertex
100
AcDb2dVertex
 10
69.0
 20
-31.0
 30
0.0
  0
SEQEND
  5
8E
330
89
100
AcDbEntity
  8
Layer 1
370
     0
  0
HATCH
  5
8F
330
1F
100
AcDbEntity
  8
Layer 1
 62
     7
420
 16777215
100
AcDbHatch
 10
0.0
 20
0.0
 30
0.0
210
0.0
220
0.0
230
1.0
  2
SOLID
 70
     1
 71
     0
 91
        1
 92
        1
 93
        4
 72
     1
 10
73.0
 20
-19.0
 11
70.0
 21
-19.0
 72
     1
 10
70.0
 20
-19.0
 11
66.0
 21
-31.0
 72
     1
 10
66.0
 20
-31.0
 11
69.0
 21
-31.0
 72
     1
 10
69.0
 20
-31.0
 11
73.0
 21
-19.0
 97
        0
 75
     2
 76
     1
 98
        0
  0
SPLINE
  5
90
330
1F
100
AcDbEntity
  8
Layer 1
370
     0
100
AcDbSpline
210
0.0
220
0.0
230
1.0
 70
     8
 71
     3
 72
    65
 73
    61
 74
     0
 42
0.0000000001
 43
0.0000000001
 40
0.0
 40
0.0
 40
0.0
 40
0.0
 40
1.0
 40
1.0
 40
1.0
 40
2.0
 40
2.0
 40
2.0
 40
3.0
 40
3.0
 40
3.0
 40
4.0
 40
4.0
 40
4.0
 40
5.0
 40
5.0
 40
5.0
 40
6.0
 40
6.0
 40
6.0
 40
7.0
 40
7.0
 40
7.0
 40
8.0
 40
8.0
 40
8.0
 40
9.0
 40
9.0
 40
9.0
 40
10.0
 40
10.0
 40
10.0
 40
11.0
 40
11.0
 40
11.0
 40
12.0
 40
12.0
 40
12.0
 40
13.0
 40
13.0
 40
13.0
 40
14.0
 40
14.0
 40
14.0
 40
15.0
 40
15.0
 40
15.0
 40
16.0
 40
16.0
 40
16.0
 40
17.0
 40
17.0
 40
17.0
 40
18.0
 40
18.0
 40
18.0
 40
19.0
 40
19.0
 40
19.0
 40
20.0
 40
20.0
 40
20.0
 40
20.0
 10
42.0
 20
-13.0
 30
0.0
 10
44.5
 20
-13.0
 30
0.0
 10
47.0
 20
-13.5
 30
0.0
 10
47.0
 20
-16.0
 30
0.0
 10
47.0
 20
-18.5
 30
0.0
 10
45.0
 20
-19.0
 30
0.0
 10
42.0
 20
-19.0
 30
0.0
 10
42.0
 20
-19.0
 30
0.0
 10
41.0
 20
-19.0
 30
0.0
 10
41.0
 20
-19.0
 30
0.0
 10
41.0
 20
-19.0
 30
0.0
 10
40.0
 20
-19.0
 30
0.0
 10
40.0
 20
-19.0
 30
0.0
 10
40.0
 20
-19.0
 30
0.0
 10
37.0
 20
-19.0
 30
0.0
 10
37.0
 20
-19.0
 30
0.0
 10
37.0
 20
-19.0
 30
0.0
 10
37.0703125
 20
-31.0
 30
0.0
 10
37.0703125
 20
-31.0
 30
0.0
 10
37.0703125
 20
-31.0
 30
0.0
 10
40.0
 20
-31.0
 30
0.0
 10
40.0
 20
-31.0
 30
0.0
 10
40.0
 20
-31.0
 30
0.0
 10
40.0
 20
-22.0
 30
0.0
 10
40.0
 20
-22.0
 30
0.0
 10
40.0
 20
-22.0
 30
0.0
 10
41.0
 20
-22.0
 30
0.0
 10
41.0
 20
-22.0
 30
0.0
 10
43.42578125
 20
-22.0
 30
0.0
 10
45.76513671875
 20
-23.126953125
 30
0.0
 10
46.3798828125
 20
-25.98828125
 30
0.0
 10
46.96337890625
 20
-28.572265625
 30
0.0
 10
47.66162109375
 20
-30.015625
 30
0.0
 10
48.0
 20
-31.0
 30
0.0
 10
48.0
 20
-31.0
 30
0.0
 10
51.0
 20
-31.0
 30
0.0
 10
51.0
 20
-31.0
 30
0.0
 10
50.5693359375
 20
-30.015625
 30
0.0
 10
49.4228515625
 20
-28.236328125
 30
0.0
 10
48.767578125
 20
-25.33984375
 30
0.0
 10
48.67333984375
 20
-24.9228515625
 30
0.0
 10
48.0
 20
-21.5
 30
0.0
 10
45.90673828125
 20
-20.90283203125
 30
0.0
 10
45.90673828125
 20
-20.90283203125
 30
0.0
 10
45.90673828125
 20
-20.810546875
 30
0.0
 10
45.90673828125
 20
-20.810546875
 30
0.0
 10
49.0
 20
-20.5
 30
0.0
 10
50.0
 20
-17.5
 30
0.0
 10
50.0
 20
-16.0
 30
0.0
 10
50.0
 20
-14.5
 30
0.0
 10
49.0
 20
-12.5
 30
0.0
 10
48.08056640625
 20
-11.8779296875
 30
0.0
 10
47.5068359375
 20
-11.48974609375
 30
0.0
 10
46.0
 20
-10.0
 30
0.0
 10
42.0
 20
-10.0
 30
0.0
 10
40.1572265625
 20
-10.0
 30
0.0
 10
38.54345703125
 20
-10.0
 30
0.0
 10
37.0
 20
-10.0
 30
0.0
 10
37.0
 20
-10.0
 30
0.0
 10
37.0
 20
-13.0
 30
0.0
 10
37.0
 20
-13.0
 30
0.0
  0
HATCH
  5
91
330
1F
100
AcDbEntity
  8
Layer 1
 62
     7
420
 16777215
100
AcDbHatch
 10
0.0
 20
0.0
 30
0.0
210
0.0
220
0.0
230
1.0
  2
SOLID
 70
     1
 71
     0
 91
        1
 92
        1
 93
        2
 72
     4
 94
        3
 73
     0
 74
     0
 95
       65
 96
       61
 40
0.0
 40
0.0
 40
0.0
 40
0.0
 40
1.0
 40
1.0
 40
1.0
 40
2.0
 40
2.0
 40
2.0
 40
3.0
 40
3.0
 40
3.0
 40
4.0
 40
4.0
 40
4.0
 40
5.0
 40
5.0
 40
5.0
 40
6.0
 40
6.0
 40
6.0
 40
7.0
 40
7.0
 40
7.0
 40
8.0
 40
8.0
 40
8.0
 40
9.0
 40
9.0
 40
9.0
 40
10.0
 40
10.0
 40
10.0
 40
11.0
 40
11.0
 40
11.0
 40
12.0
 40
12.0
 40
12.0
 40
13.0
 40
13.0
 40
13.0
 40
14.0
 40
14.0
 40
14.0
 40
15.0
 40
15.0
 40
15.0
 40
16.0
 40
16.0
 40
16.0
 40
17.0
 40
17.0
 40
17.0
 40
18.0
 40
18.0
 40
18.0
 40
19.0
 40
19.0
 40
19.0
 40
20.0
 40
20.0
 40
20.0
 40
20.0
 10
42.0
 20
-13.0
 10
44.5
 20
-13.0
 10
47.0
 20
-13.5
 10
47.0
 20
-16.0
 10
47.0
 20
-18.5
 10
45.0
 20
-19.0
 10
42.0
 20
-19.0
 10
42.0
 20
-19.0
 10
41.0
 20
-19.0
 10
41.0
 20
-19.0
 10
41.0
 20
-19.0
 10
40.0
 20
-19.0
 10
40.0
 20
-19.0
 10
40.0
 20
-19.0
 10
37.0
 20
-19.0
 10
37.0
 20
-19.0
 10
37.0
 20
-19.0
 10
37.0703125
 20
-31.0
 10
37.0703125
 20
-31.0
 10
37.0703125
 20
-31.0
 10
40.0
 20
-31.0
 10
40.0
 20
-31.0
 10
40.0
 20
-31.0
 10
40.0
 20
-22.0
 10
40.0
 20
-22.0
 10
40.0
 20
-22.0
 10
41.0
 20
-22.0
 10
41.0
 20
-22.0
 10
43.42578125
 20
-22.0
 10
45.76513671875
 20
-23.126953125
 10
46.3798828125
 20
-25.98828125
 10
46.96337890625
 20
-28.572265625
 10
47.66162109375
 20
-30.015625
 10
48.0
 20
-31.0
 10
48.0
 20
-31.0
 10
51.0
 20
-31.0
 10
51.0
 20
-31.0
 10
50.5693359375
 20
-30.015625
 10
49.4228515625
 20
-28.236328125
 10
48.767578125
 20
-25.33984375
 10
48.67333984375
 20
-24.9228515625
 10
48.0
 20
-21.5
 10
45.90673828125
 20
-20.90283203125
 10
45.90673828125
 20
-20.90283203125
 10
45.90673828125
 20
-20.810546875
 10
45.90673828125
 20
-20.810546875
 10
49.0
 20
-20.5
 10
50.0
 20
-17.5
 10
50.0
 20
-16.0
 10
50.0
 20
-14.5
 10
49.0
 20
-12.5
 10
48.08056640625
 20
-11.8779296875
 10
47.5068359375
 20
-11.48974609375
 10
46.0
 20
-10.0
 10
42.0
 20
-10.0
 10
40.1572265625
 20
-10.0
 10
38.54345703125
 20
-10.0
 10
37.0
 20
-10.0
 10
37.0
 20
-10.0
 10
37.0
 20
-13.0
 10
37.0
 20
-13.0
 72
     1
 10
37.0
 20
-13.0
 11
42.0
 21
-13.0
 97
        0
 75
     2
 76
     1
 98
        0
  0
SPLINE
  5
92
330
1F
100
AcDbEntity
  8
Layer 1
370
     0
100
AcDbSpline
210
0.0
220
0.0
230
1.0
 70
    11
 71
     3
 72
    83
 73
    79
 74
     0
 42
0.0000000001
 43
0.0000000001
 40
0.0
 40
0.0
 40
0.0
 40
0.0
 40
1.0
 40
1.0
 40
1.0
 40
2.0
 40
2.0
 40
2.0
 40
3.0
 40
3.0
 40
3.0
 40
4.0
 40
4.0
 40
4.0
 40
5.0
 40
5.0
 40
5.0
 40
6.0
 40
6.0
 40
6.0
 40
7.0
 40
7.0
 40
7.0
 40
8.0
 40
8.0
 40
8.0
 40
9.0
 40
9.0
 40
9.0
 40
10.0
 40
10.0
 40
10.0
 40
11.0
 40
11.0
 40
11.0
 40
12.0
 40
12.0
 40
12.0
 40
13.0
 40
13.0
 40
13.0
 40
14.0
 40
14.0
 40
14.0
 40
15.0
 40
15.0
 40
15.0
 40
16.0
 40
16.0
 40
16.0
 40
17.0
 40
17.0
 40
17.0
 40
18.0
 40
18.0
 40
18.0
 40
19.0
 40
19.0
 40
19.0
 40
20.0
 40
20.0
 40
20.0
 40
21.0
 40
21.0
 40
21.0
 40
22.0
 40
22.0
 40
22.0
 40
23.0
 40
23.0
 40
23.0
 40
24.0
 40
24.0
 40
24.0
 40
25.0
 40
25.0
 40
25.0
 40
26.0
 40
26.0
 40
26.0
 40
26.0
 10
6.5068359375
 20
-34.4501953125
 30
0.0
 10
6.369140625
 20
-34.2294921875
 30
0.0
 10
6.16796875
 20
-34.05078125
 30
0.0
 10
5.9052734375
 20
-33.9052734375
 30
0.0
 10
5.642578125
 20
-33.765625
 30
0.0
 10
5.357421875
 20
-33.6943359375
 30
0.0
 10
5.04833984375
 20
-33.6943359375
 30
0.0
 10
4.71728515625
 20
-33.6943359375
 30
0.0
 10
4.4169921875
 20
-33.7548828125
 30
0.0
 10
4.14990234375
 20
-33.87109375
 30
0.0
 10
3.88232421875
 20
-33.9873046875
 30
0.0
 10
3.654296875
 20
-34.1494140625
 30
0.0
 10
3.46337890625
 20
-34.357421875
 30
0.0
 10
3.2734375
 20
-34.564453125
 30
0.0
 10
3.1279296875
 20
-34.80859375
 30
0.0
 10
3.02685546875
 20
-35.087890625
 30
0.0
 10
2.92529296875
 20
-35.369140625
 30
0.0
 10
2.8740234375
 20
-35.669921875
 30
0.0
 10
2.8740234375
 20
-35.9931640625
 30
0.0
 10
2.8740234375
 20
-36.318359375
 30
0.0
 10
2.92529296875
 20
-36.619140625
 30
0.0
 10
3.02685546875
 20
-36.896484375
 30
0.0
 10
3.1279296875
 20
-37.171875
 30
0.0
 10
3.271484375
 20
-37.412109375
 30
0.0
 10
3.45703125
 20
-37.619140625
 30
0.0
 10
3.6435546875
 20
-37.8271484375
 30
0.0
 10
3.87109375
 20
-37.9873046875
 30
0.0
 10
4.1376953125
 20
-38.10546875
 30
0.0
 10
4.4052734375
 20
-38.224609375
 30
0.0
 10
4.70458984375
 20
-38.2841796875
 30
0.0
 10
5.03662109375
 20
-38.2841796875
 30
0.0
 10
5.40087890625
 20
-38.2841796875
 30
0.0
 10
5.70947265625
 20
-38.21484375
 30
0.0
 10
5.96044921875
 20
-38.0751953125
 30
0.0
 10
6.2119140625
 20
-37.939453125
 30
0.0
 10
6.41796875
 20
-37.7607421875
 30
0.0
 10
6.580078125
 20
-37.5400390625
 30
0.0
 10
6.580078125
 20
-37.5400390625
 30
0.0
 10
7.19970703125
 20
-38.0048828125
 30
0.0
 10
7.19970703125
 20
-38.0048828125
 30
0.0
 10
6.95654296875
 20
-38.3037109375
 30
0.0
 10
6.65966796875
 20
-38.5419921875
 30
0.0
 10
6.30615234375
 20
-38.720703125
 30
0.0
 10
5.95458984375
 20
-38.900390625
 30
0.0
 10
5.53125
 20
-38.98828125
 30
0.0
 10
5.03662109375
 20
-38.98828125
 30
0.0
 10
4.57568359375
 20
-38.98828125
 30
0.0
 10
4.15771484375
 20
-38.9140625
 30
0.0
 10
3.78564453125
 20
-38.7626953125
 30
0.0
 10
3.41357421875
 20
-38.61328125
 30
0.0
 10
3.09521484375
 20
-38.40625
 30
0.0
 10
2.83203125
 20
-38.13671875
 30
0.0
 10
2.56884765625
 20
-37.869140625
 30
0.0
 10
2.3642578125
 20
-37.5537109375
 30
0.0
 10
2.21875
 20
-37.1875
 30
0.0
 10
2.0732421875
 20
-36.8212890625
 30
0.0
 10
2.0
 20
-36.42578125
 30
0.0
 10
2.0
 20
-35.9931640625
 30
0.0
 10
2.0
 20
-35.5625
 30
0.0
 10
2.0732421875
 20
-35.1669921875
 30
0.0
 10
2.21875
 20
-34.802734375
 30
0.0
 10
2.3642578125
 20
-34.4365234375
 30
0.0
 10
2.56884765625
 20
-34.12109375
 30
0.0
 10
2.83203125
 20
-33.8515625
 30
0.0
 10
3.09521484375
 20
-33.583984375
 30
0.0
 10
3.41357421875
 20
-33.3759765625
 30
0.0
 10
3.78564453125
 20
-33.2275390625
 30
0.0
 10
4.15771484375
 20
-33.076171875
 30
0.0
 10
4.57568359375
 20
-33.0
 30
0.0
 10
5.03662109375
 20
-33.0
 30
0.0
 10
5.41748046875
 20
-33.0
 30
0.0
 10
5.8046875
 20
-33.083984375
 30
0.0
 10
6.197265625
 20
-33.25
 30
0.0
 10
6.58984375
 20
-33.4150390625
 30
0.0
 10
6.908203125
 20
-33.6611328125
 30
0.0
 10
7.15087890625
 20
-33.9853515625
 30
0.0
 10
7.15087890625
 20
-33.9853515625
 30
0.0
 10
6.5068359375
 20
-34.4501953125
 30
0.0
 10
6.5068359375
 20
-34.4501953125
 30
0.0
  0
HATCH
  5
93
330
1F
100
AcDbEntity
  8
Layer 1
 62
     7
420
 16777215
100
AcDbHatch
 10
0.0
 20
0.0
 30
0.0
210
0.0
220
0.0
230
1.0
  2
SOLID
 70
     1
 71
     0
 91
        1
 92
        1
 93
        1
 72
     4
 94
        3
 73
     0
 74
     1
 95
       83
 96
       79
 40
0.0
 40
0.0
 40
0.0
 40
0.0
 40
1.0
 40
1.0
 40
1.0
 40
2.0
 40
2.0
 40
2.0
 40
3.0
 40
3.0
 40
3.0
 40
4.0
 40
4.0
 40
4.0
 40
5.0
 40
5.0
 40
5.0
 40
6.0
 40
6.0
 40
6.0
 40
7.0
 40
7.0
 40
7.0
 40
8.0
 40
8.0
 40
8.0
 40
9.0
 40
9.0
 40
9.0
 40
10.0
 40
10.0
 40
10.0
 40
11.0
 40
11.0
 40
11.0
 40
12.0
 40
12.0
 40
12.0
 40
13.0
 40
13.0
 40
13.0
 40
14.0
 40
14.0
 40
14.0
 40
15.0
 40
15.0
 40
15.0
 40
16.0
 40
16.0
 40
16.0
 40
17.0
 40
17.0
 40
17.0
 40
18.0
 40
18.0
 40
18.0
 40
19.0
 40
19.0
 40
19.0
 40
20.0
 40
20.0
 40
20.0
 40
21.0
 40
21.0
 40
21.0
 40
22.0
 40
22.0
 40
22.0
 40
23.0
 40
23.0
 40
23.0
 40
24.0
 40
24.0
 40
24.0
 40
25.0
 40
25.0
 40
25.0
 40
26.0
 40
26.0
 40
26.0
 40
26.0
 10
6.5068359375
 20
-34.4501953125
 10
6.369140625
 20
-34.2294921875
 10
6.16796875
 20
-34.05078125
 10
5.9052734375
 20
-33.9052734375
 10
5.642578125
 20
-33.765625
 10
5.357421875
 20
-33.6943359375
 10
5.04833984375
 20
-33.6943359375
 10
4.71728515625
 20
-33.6943359375
 10
4.4169921875
 20
-33.7548828125
 10
4.14990234375
 20
-33.87109375
 10
3.88232421875
 20
-33.9873046875
 10
3.654296875
 20
-34.1494140625
 10
3.46337890625
 20
-34.357421875
 10
3.2734375
 20
-34.564453125
 10
3.1279296875
 20
-34.80859375
 10
3.02685546875
 20
-35.087890625
 10
2.92529296875
 20
-35.369140625
 10
2.8740234375
 20
-35.669921875
 10
2.8740234375
 20
-35.9931640625
 10
2.8740234375
 20
-36.318359375
 10
2.92529296875
 20
-36.619140625
 10
3.02685546875
 20
-36.896484375
 10
3.1279296875
 20
-37.171875
 10
3.271484375
 20
-37.412109375
 10
3.45703125
 20
-37.619140625
 10
3.6435546875
 20
-37.8271484375
 10
3.87109375
 20
-37.9873046875
 10
4.1376953125
 20
-38.10546875
 10
4.4052734375
 20
-38.224609375
 10
4.70458984375
 20
-38.2841796875
 10
5.03662109375
 20
-38.2841796875
 10
5.40087890625
 20
-38.2841796875
 10
5.70947265625
 20
-38.21484375
 10
5.96044921875
 20
-38.0751953125
 10
6.2119140625
 20
-37.939453125
 10
6.41796875
 20
-37.7607421875
 10
6.580078125
 20
-37.5400390625
 10
6.580078125
 20
-37.5400390625
 10
7.19970703125
 20
-38.0048828125
 10
7.19970703125
 20
-38.0048828125
 10
6.95654296875
 20
-38.3037109375
 10
6.65966796875
 20
-38.5419921875
 10
6.30615234375
 20
-38.720703125
 10
5.95458984375
 20
-38.900390625
 10
5.53125
 20
-38.98828125
 10
5.03662109375
 20
-38.98828125
 10
4.57568359375
 20
-38.98828125
 10
4.15771484375
 20
-38.9140625
 10
3.78564453125
 20
-38.7626953125
 10
3.41357421875
 20
-38.61328125
 10
3.09521484375
 20
-38.40625
 10
2.83203125
 20
-38.13671875
 10
2.56884765625
 20
-37.869140625
 10
2.3642578125
 20
-37.5537109375
 10
2.21875
 20
-37.1875
 10
2.0732421875
 20
-36.8212890625
 10
2.0
 20
-36.42578125
 10
2.0
 20
-35.9931640625
 10
2.0
 20
-35.5625
 10
2.0732421875
 20
-35.1669921875
 10
2.21875
 20
-34.802734375
 10
2.3642578125
 20
-34.4365234375
 10
2.56884765625
 20
-34.12109375
 10
2.83203125
 20
-33.8515625
 10
3.09521484375
 20
-33.583984375
 10
3.41357421875
 20
-33.3759765625
 10
3.78564453125
 20
-33.2275390625
 10
4.15771484375
 20
-33.076171875
 10
4.57568359375
 20
-33.0
 10
5.03662109375
 20
-33.0
 10
5.41748046875
 20
-33.0
 10
5.8046875
 20
-33.083984375
 10
6.197265625
 20
-33.25
 10
6.58984375
 20
-33.4150390625
 10
6.908203125
 20
-33.6611328125
 10
7.15087890625
 20
-33.9853515625
 10
7.15087890625
 20
-33.9853515625
 10
6.5068359375
 20
-34.4501953125
 10
6.5068359375
 20
-34.4501953125
 97
        0
 75
     2
 76
     1
 98
        0
  0
SPLINE
  5
94
330
1F
100
AcDbEntity
  8
Layer 1
370
     0
100
AcDbSpline
210
0.0
220
0.0
230
1.0
 70
    11
 71
     3
 72
    53
 73
    49
 74
     0
 42
0.0000000001
 43
0.0000000001
 40
0.0
 40
0.0
 40
0.0
 40
0.0
 40
1.0
 40
1.0
 40
1.0
 40
2.0
 40
2.0
 40
2.0
 40
3.0
 40
3.0
 40
3.0
 40
4.0
 40
4.0
 40
4.0
 40
5.0
 40
5.0
 40
5.0
 40
6.0
 40
6.0
 40
6.0
 40
7.0
 40
7.0
 40
7.0
 40
8.0
 40
8.0
 40
8.0
 40
9.0
 40
9.0
 40
9.0
 40
10.0
 40
10.0
 40
10.0
 40
11.0
 40
11.0
 40
11.0
 40
12.0
 40
12.0
 40
12.0
 40
13.0
 40
13.0
 40
13.0
 40
14.0
 40
14.0
 40
14.0
 40
15.0
 40
15.0
 40
15.0
 40
16.0
 40
16.0
 40
16.0
 40
16.0
 10
19.0546875
 20
-35.986328125
 30
0.0
 10
19.0546875
 20
-36.4189453125
 30
0.0
 10
18.98046875
 20
-36.8134765625
 30
0.0
 10
18.83056640625
 20
-37.1796875
 30
0.0
 10
18.68115234375
 20
-37.5458984375
 30
0.0
 10
18.4716796875
 20
-37.8623046875
 30
0.0
 10
18.20556640625
 20
-38.1298828125
 30
0.0
 10
17.93798828125
 20
-38.3984375
 30
0.0
 10
17.6181640625
 20
-38.6064453125
 30
0.0
 10
17.2451171875
 20
-38.7548828125
 30
0.0
 10
16.873046875
 20
-38.9072265625
 30
0.0
 10
16.4638671875
 20
-38.9794921875
 30
0.0
 10
16.0185546875
 20
-38.9794921875
 30
0.0
 10
15.58154296875
 20
-38.9794921875
 30
0.0
 10
15.17724609375
 20
-38.9072265625
 30
0.0
 10
14.80419921875
 20
-38.7548828125
 30
0.0
 10
14.43212890625
 20
-38.6064453125
 30
0.0
 10
14.11181640625
 20
-38.3984375
 30
0.0
 10
13.8447265625
 20
-38.1298828125
 30
0.0
 10
13.578125
 20
-37.8623046875
 30
0.0
 10
13.369140625
 20
-37.5458984375
 30
0.0
 10
13.21923828125
 20
-37.1796875
 30
0.0
 10
13.06884765625
 20
-36.8134765625
 30
0.0
 10
12.9951171875
 20
-36.4189453125
 30
0.0
 10
12.9951171875
 20
-35.986328125
 30
0.0
 10
12.9951171875
 20
-35.5556640625
 30
0.0
 10
13.06884765625
 20
-35.1611328125
 30
0.0
 10
13.21923828125
 20
-34.796875
 30
0.0
 10
13.369140625
 20
-34.4306640625
 30
0.0
 10
13.578125
 20
-34.1142578125
 30
0.0
 10
13.8447265625
 20
-33.8447265625
 30
0.0
 10
14.11181640625
 20
-33.578125
 30
0.0
 10
14.43212890625
 20
-33.3701171875
 30
0.0
 10
14.80419921875
 20
-33.2216796875
 30
0.0
 10
15.17724609375
 20
-33.0693359375
 30
0.0
 10
15.58154296875
 20
-32.9951171875
 30
0.0
 10
16.0185546875
 20
-32.9951171875
 30
0.0
 10
16.4638671875
 20
-32.9951171875
 30
0.0
 10
16.873046875
 20
-33.0693359375
 30
0.0
 10
17.2451171875
 20
-33.2216796875
 30
0.0
 10
17.6181640625
 20
-33.3701171875
 30
0.0
 10
17.93798828125
 20
-33.578125
 30
0.0
 10
18.20556640625
 20
-33.8447265625
 30
0.0
 10
18.4716796875
 20
-34.1142578125
 30
0.0
 10
18.68115234375
 20
-34.4306640625
 30
0.0
 10
18.83056640625
 20
-34.796875
 30
0.0
 10
18.98046875
 20
-35.1611328125
 30
0.0
 10
19.0546875
 20
-35.5556640625
 30
0.0
 10
19.0546875
 20
-35.986328125
 30
0.0
  0
SPLINE
  5
95
330
1F
100
AcDbEntity
  8
Layer 1
370
     0
100
AcDbSpline
210
0.0
220
0.0
230
1.0
 70
    11
 71
     3
 72
    53
 73
    49
 74
     0
 42
0.0000000001
 43
0.0000000001
 40
0.0
 40
0.0
 40
0.0
 40
0.0
 40
1.0
 40
1.0
 40
1.0
 40
2.0
 40
2.0
 40
2.0
 40
3.0
 40
3.0
 40
3.0
 40
4.0
 40
4.0
 40
4.0
 40
5.0
 40
5.0
 40
5.0
 40
6.0
 40
6.0
 40
6.0
 40
7.0
 40
7.0
 40
7.0
 40
8.0
 40
8.0
 40
8.0
 40
9.0
 40
9.0
 40
9.0
 40
10.0
 40
10.0
 40
10.0
 40
11.0
 40
11.0
 40
11.0
 40
12.0
 40
12.0
 40
12.0
 40
13.0
 40
13.0
 40
13.0
 40
14.0
 40
14.0
 40
14.0
 40
15.0
 40
15.0
 40
15.0
 40
16.0
 40
16.0
 40
16.0
 40
16.0
 10
18.18017578125
 20
-35.986328125
 30
0.0
 10
18.18017578125
 20
-35.669921875
 30
0.0
 10
18.13037109375
 20
-35.3740234375
 30
0.0
 10
18.02978515625
 20
-35.091796875
 30
0.0
 10
17.927734375
 20
-34.8134765625
 30
0.0
 10
17.7841796875
 20
-34.5703125
 30
0.0
 10
17.59765625
 20
-34.3642578125
 30
0.0
 10
17.4111328125
 20
-34.158203125
 30
0.0
 10
17.18505859375
 20
-33.9931640625
 30
0.0
 10
16.91796875
 20
-33.8720703125
 30
0.0
 10
16.650390625
 20
-33.75
 30
0.0
 10
16.35107421875
 20
-33.6884765625
 30
0.0
 10
16.0185546875
 20
-33.6884765625
 30
0.0
 10
15.6865234375
 20
-33.6884765625
 30
0.0
 10
15.388671875
 20
-33.75
 30
0.0
 10
15.12548828125
 20
-33.8720703125
 30
0.0
 10
14.86328125
 20
-33.9931640625
 30
0.0
 10
14.638671875
 20
-34.158203125
 30
0.0
 10
14.4521484375
 20
-34.3642578125
 30
0.0
 10
14.26513671875
 20
-34.5703125
 30
0.0
 10
14.12158203125
 20
-34.8134765625
 30
0.0
 10
14.02099609375
 20
-35.091796875
 30
0.0
 10
13.91943359375
 20
-35.3740234375
 30
0.0
 10
13.86962890625
 20
-35.669921875
 30
0.0
 10
13.86962890625
 20
-35.986328125
 30
0.0
 10
13.86962890625
 20
-36.3046875
 30
0.0
 10
13.91943359375
 20
-36.6025390625
 30
0.0
 10
14.02099609375
 20
-36.8828125
 30
0.0
 10
14.12158203125
 20
-37.162109375
 30
0.0
 10
14.26513671875
 20
-37.404296875
 30
0.0
 10
14.4521484375
 20
-37.6123046875
 30
0.0
 10
14.638671875
 20
-37.818359375
 30
0.0
 10
14.86328125
 20
-37.9794921875
 30
0.0
 10
15.12548828125
 20
-38.0986328125
 30
0.0
 10
15.388671875
 20
-38.216796875
 30
0.0
 10
15.6865234375
 20
-38.2763671875
 30
0.0
 10
16.0185546875
 20
-38.2763671875
 30
0.0
 10
16.35107421875
 20
-38.2763671875
 30
0.0
 10
16.650390625
 20
-38.216796875
 30
0.0
 10
16.91796875
 20
-38.0986328125
 30
0.0
 10
17.18505859375
 20
-37.9794921875
 30
0.0
 10
17.4111328125
 20
-37.818359375
 30
0.0
 10
17.59765625
 20
-37.6123046875
 30
0.0
 10
17.7841796875
 20
-37.404296875
 30
0.0
 10
17.927734375
 20
-37.162109375
 30
0.0
 10
18.02978515625
 20
-36.8828125
 30
0.0
 10
18.13037109375
 20
-36.6025390625
 30
0.0
 10
18.18017578125
 20
-36.3046875
 30
0.0
 10
18.18017578125
 20
-35.986328125
 30
0.0
  0
HATCH
  5
96
330
1F
100
AcDbEntity
  8
Layer 1
 62
     7
420
 16777215
100
AcDbHatch
 10
0.0
 20
0.0
 30
0.0
210
0.0
220
0.0
230
1.0
  2
SOLID
 70
     1
 71
     0
 91
        2
 92
        1
 93
        1
 72
     4
 94
        3
 73
     0
 74
     1
 95
       53
 96
       49
 40
0.0
 40
0.0
 40
0.0
 40
0.0
 40
1.0
 40
1.0
 40
1.0
 40
2.0
 40
2.0
 40
2.0
 40
3.0
 40
3.0
 40
3.0
 40
4.0
 40
4.0
 40
4.0
 40
5.0
 40
5.0
 40
5.0
 40
6.0
 40
6.0
 40
6.0
 40
7.0
 40
7.0
 40
7.0
 40
8.0
 40
8.0
 40
8.0
 40
9.0
 40
9.0
 40
9.0
 40
10.0
 40
10.0
 40
10.0
 40
11.0
 40
11.0
 40
11.0
 40
12.0
 40
12.0
 40
12.0
 40
13.0
 40
13.0
 40
13.0
 40
14.0
 40
14.0
 40
14.0
 40
15.0
 40
15.0
 40
15.0
 40
16.0
 40
16.0
 40
16.0
 40
16.0
 10
19.0546875
 20
-35.986328125
 10
19.0546875
 20
-36.4189453125
 10
18.98046875
 20
-36.8134765625
 10
18.83056640625
 20
-37.1796875
 10
18.68115234375
 20
-37.5458984375
 10
18.4716796875
 20
-37.8623046875
 10
18.20556640625
 20
-38.1298828125
 10
17.93798828125
 20
-38.3984375
 10
17.6181640625
 20
-38.6064453125
 10
17.2451171875
 20
-38.7548828125
 10
16.873046875
 20
-38.9072265625
 10
16.4638671875
 20
-38.9794921875
 10
16.0185546875
 20
-38.9794921875
 10
15.58154296875
 20
-38.9794921875
 10
15.17724609375
 20
-38.9072265625
 10
14.80419921875
 20
-38.7548828125
 10
14.43212890625
 20
-38.6064453125
 10
14.11181640625
 20
-38.3984375
 10
13.8447265625
 20
-38.1298828125
 10
13.578125
 20
-37.8623046875
 10
13.369140625
 20
-37.5458984375
 10
13.21923828125
 20
-37.1796875
 10
13.06884765625
 20
-36.8134765625
 10
12.9951171875
 20
-36.4189453125
 10
12.9951171875
 20
-35.986328125
 10
12.9951171875
 20
-35.5556640625
 10
13.06884765625
 20
-35.1611328125
 10
13.21923828125
 20
-34.796875
 10
13.369140625
 20
-34.4306640625
 10
13.578125
 20
-34.1142578125
 10
13.8447265625
 20
-33.8447265625
 10
14.11181640625
 20
-33.578125
 10
14.43212890625
 20
-33.3701171875
 10
14.80419921875
 20
-33.2216796875
 10
15.17724609375
 20
-33.0693359375
 10
15.58154296875
 20
-32.9951171875
 10
16.0185546875
 20
-32.9951171875
 10
16.4638671875
 20
-32.9951171875
 10
16.873046875
 20
-33.0693359375
 10
17.2451171875
 20
-33.2216796875
 10
17.6181640625
 20
-33.3701171875
 10
17.93798828125
 20
-33.578125
 10
18.20556640625
 20
-33.8447265625
 10
18.4716796875
 20
-34.1142578125
 10
18.68115234375
 20
-34.4306640625
 10
18.83056640625
 20
-34.796875
 10
18.98046875
 20
-35.1611328125
 10
19.0546875
 20
-35.5556640625
 10
19.0546875
 20
-35.986328125
 97
        0
 92
        1
 93
        1
 72
     4
 94
        3
 73
     0
 74
     1
 95
       53
 96
       49
 40
0.0
 40
0.0
 40
0.0
 40
0.0
 40
1.0
 40
1.0
 40
1.0
 40
2.0
 40
2.0
 40
2.0
 40
3.0
 40
3.0
 40
3.0
 40
4.0
 40
4.0
 40
4.0
 40
5.0
 40
5.0
 40
5.0
 40
6.0
 40
6.0
 40
6.0
 40
7.0
 40
7.0
 40
7.0
 40
8.0
 40
8.0
 40
8.0
 40
9.0
 40
9.0
 40
9.0
 40
10.0
 40
10.0
 40
10.0
 40
11.0
 40
11.0
 40
11.0
 40
12.0
 40
12.0
 40
12.0
 40
13.0
 40
13.0
 40
13.0
 40
14.0
 40
14.0
 40
14.0
 40
15.0
 40
15.0
 40
15.0
 40
16.0
 40
16.0
 40
16.0
 40
16.0
 10
18.18017578125
 20
-35.986328125
 10
18.18017578125
 20
-35.669921875
 10
18.13037109375
 20
-35.3740234375
 10
18.02978515625
 20
-35.091796875
 10
17.927734375
 20
-34.8134765625
 10
17.7841796875
 20
-34.5703125
 10
17.59765625
 20
-34.3642578125
 10
17.4111328125
 20
-34.158203125
 10
17.18505859375
 20
-33.9931640625
 10
16.91796875
 20
-33.8720703125
 10
16.650390625
 20
-33.75
 10
16.35107421875
 20
-33.6884765625
 10
16.0185546875
 20
-33.6884765625
 10
15.6865234375
 20
-33.6884765625
 10
15.388671875
 20
-33.75
 10
15.12548828125
 20
-33.8720703125
 10
14.86328125
 20
-33.9931640625
 10
14.638671875
 20
-34.158203125
 10
14.4521484375
 20
-34.3642578125
 10
14.26513671875
 20
-34.5703125
 10
14.12158203125
 20
-34.8134765625
 10
14.02099609375
 20
-35.091796875
 10
13.91943359375
 20
-35.3740234375
 10
13.86962890625
 20
-35.669921875
 10
13.86962890625
 20
-35.986328125
 10
13.86962890625
 20
-36.3046875
 10
13.91943359375
 20
-36.6025390625
 10
14.02099609375
 20
-36.8828125
 10
14.12158203125
 20
-37.162109375
 10
14.26513671875
 20
-37.404296875
 10
14.4521484375
 20
-37.6123046875
 10
14.638671875
 20
-37.818359375
 10
14.86328125
 20
-37.9794921875
 10
15.12548828125
 20
-38.0986328125
 10
15.388671875
 20
-38.216796875
 10
15.6865234375
 20
-38.2763671875
 10
16.0185546875
 20
-38.2763671875
 10
16.35107421875
 20
-38.2763671875
 10
16.650390625
 20
-38.216796875
 10
16.91796875
 20
-38.0986328125
 10
17.18505859375
 20
-37.9794921875
 10
17.4111328125
 20
-37.818359375
 10
17.59765625
 20
-37.6123046875
 10
17.7841796875
 20
-37.404296875
 10
17.927734375
 20
-37.162109375
 10
18.02978515625
 20
-36.8828125
 10
18.13037109375
 20
-36.6025390625
 10
18.18017578125
 20
-36.3046875
 10
18.18017578125
 20
-35.986328125
 97
        0
 75
     2
 76
     1
 98
        0
  0
POLYLINE
  5
97
330
1F
100
AcDbEntity
  8
Layer 1
370
     0
100
AcDb2dPolyline
 66
     1
 10
0.0
 20
0.0
 30
0.0
  0
VERTEX
  5
98
330
97
100
AcDbEntity
  8
Layer 1
370
     0
100
AcDbVertex
100
AcDb2dVertex
 10
27.0
 20
-39.0
 30
0.0
  0
VERTEX
  5
99
330
97
100
AcDbEntity
  8
Layer 1
370
     0
100
AcDbVertex
100
AcDb2dVertex
 10
26.0
 20
-39.0
 30
0.0
  0
VERTEX
  5
9A
330
97
100
AcDbEntity
  8
Layer 1
370
     0
100
AcDbVertex
100
AcDb2dVertex
 10
26.0
 20
-32.0
 30
0.0
  0
VERTEX
  5
9B
330
97
100
AcDbEntity
  8
Layer 1
370
     0
100
AcDbVertex
100
AcDb2dVertex
 10
27.0
 20
-32.0
 30
0.0
  0
VERTEX
  5
9C
330
97
100
AcDbEntity
  8
Layer 1
370
     0
100
AcDbVertex
100
AcDb2dVertex
 10
27.0
 20
-39.0
 30
0.0
  0
SEQEND
  5
9D
330
97
100
AcDbEntity
  8
Layer 1
370
     0
  0
HATCH
  5
9E
330
1F
100
AcDbEntity
  8
Layer 1
 62
     7
420
 16777215
100
AcDbHatch
 10
0.0
 20
0.0
 30
0.0
210
0.0
220
0.0
230
1.0
  2
SOLID
 70
     1
 71
     0
 91
        1
 92
        1
 93
        4
 72
     1
 10
27.0
 20
-39.0
 11
26.0
 21
-39.0
 72
     1
 10
26.0
 20
-39.0
 11
26.0
 21
-32.0
 72
     1
 10
26.0
 20
-32.0
 11
27.0
 21
-32.0
 72
     1
 10
27.0
 20
-32.0
 11
27.0
 21
-39.0
 97
        0
 75
     2
 76
     1
 98
        0
  0
SPLINE
  5
9F
330
1F
100
AcDbEntity
  8
Layer 1
370
     0
100
AcDbSpline
210
0.0
220
0.0
230
1.0
 70
    11
 71
     3
 72
    83
 73
    79
 74
     0
 42
0.0000000001
 43
0.0000000001
 40
0.0
 40
0.0
 40
0.0
 40
0.0
 40
1.0
 40
1.0
 40
1.0
 40
2.0
 40
2.0
 40
2.0
 40
3.0
 40
3.0
 40
3.0
 40
4.0
 40
4.0
 40
4.0
 40
5.0
 40
5.0
 40
5.0
 40
6.0
 40
6.0
 40
6.0
 40
7.0
 40
7.0
 40
7.0
 40
8.0
 40
8.0
 40
8.0
 40
9.0
 40
9.0
 40
9.0
 40
10.0
 40
10.0
 40
10.0
 40
11.0
 40
11.0
 40
11.0
 40
12.0
 40
12.0
 40
12.0
 40
13.0
 40
13.0
 40
13.0
 40
14.0
 40
14.0
 40
14.0
 40
15.0
 40
15.0
 40
15.0
 40
16.0
 40
16.0
 40
16.0
 40
17.0
 40
17.0
 40
17.0
 40
18.0
 40
18.0
 40
18.0
 40
19.0
 40
19.0
 40
19.0
 40
20.0
 40
20.0
 40
20.0
 40
21.0
 40
21.0
 40
21.0
 40
22.0
 40
22.0
 40
22.0
 40
23.0
 40
23.0
 40
23.0
 40
24.0
 40
24.0
 40
24.0
 40
25.0
 40
25.0
 40
25.0
 40
26.0
 40
26.0
 40
26.0
 40
26.0
 10
53.306640625
 20
-34.439453125
 30
0.0
 10
53.16796875
 20
-34.21875
 30
0.0
 10
52.96875
 20
-34.0400390625
 30
0.0
 10
52.705078125
 20
-33.89453125
 30
0.0
 10
52.443359375
 20
-33.7548828125
 30
0.0
 10
52.15625
 20
-33.68359375
 30
0.0
 10
51.84765625
 20
-33.68359375
 30
0.0
 10
51.515625
 20
-33.68359375
 30
0.0
 10
51.21484375
 20
-33.744140625
 30
0.0
 10
50.94921875
 20
-33.8603515625
 30
0.0
 10
50.68359375
 20
-33.9765625
 30
0.0
 10
50.45166015625
 20
-34.138671875
 30
0.0
 10
50.26220703125
 20
-34.3466796875
 30
0.0
 10
50.07177734375
 20
-34.5537109375
 30
0.0
 10
49.92724609375
 20
-34.7978515625
 30
0.0
 10
49.82568359375
 20
-35.0771484375
 30
0.0
 10
49.7236328125
 20
-35.3583984375
 30
0.0
 10
49.67431640625
 20
-35.6591796875
 30
0.0
 10
49.67431640625
 20
-35.982421875
 30
0.0
 10
49.67431640625
 20
-36.3076171875
 30
0.0
 10
49.7236328125
 20
-36.6083984375
 30
0.0
 10
49.82568359375
 20
-36.8857421875
 30
0.0
 10
49.92724609375
 20
-37.1611328125
 30
0.0
 10
50.06982421875
 20
-37.4013671875
 30
0.0
 10
50.25634765625
 20
-37.6083984375
 30
0.0
 10
50.44189453125
 20
-37.81640625
 30
0.0
 10
50.671875
 20
-37.9765625
 30
0.0
 10
50.9375
 20
-38.0947265625
 30
0.0
 10
51.20703125
 20
-38.2138671875
 30
0.0
 10
51.50390625
 20
-38.2734375
 30
0.0
 10
51.8359375
 20
-38.2734375
 30
0.0
 10
52.203125
 20
-38.2734375
 30
0.0
 10
52.5078125
 20
-38.2041015625
 30
0.0
 10
52.759765625
 20
-38.064453125
 30
0.0
 10
53.009765625
 20
-37.9287109375
 30
0.0
 10
53.216796875
 20
-37.75
 30
0.0
 10
53.37890625
 20
-37.529296875
 30
0.0
 10
53.37890625
 20
-37.529296875
 30
0.0
 10
54.0
 20
-37.994140625
 30
0.0
 10
54.0
 20
-37.994140625
 30
0.0
 10
53.755859375
 20
-38.29296875
 30
0.0
 10
53.458984375
 20
-38.53125
 30
0.0
 10
53.10546875
 20
-38.7099609375
 30
0.0
 10
52.751953125
 20
-38.8896484375
 30
0.0
 10
52.330078125
 20
-38.9775390625
 30
0.0
 10
51.8359375
 20
-38.9775390625
 30
0.0
 10
51.375
 20
-38.9775390625
 30
0.0
 10
50.955078125
 20
-38.9033203125
 30
0.0
 10
50.583984375
 20
-38.751953125
 30
0.0
 10
50.21142578125
 20
-38.6025390625
 30
0.0
 10
49.89208984375
 20
-38.3955078125
 30
0.0
 10
49.630859375
 20
-38.1259765625
 30
0.0
 10
49.3671875
 20
-37.8583984375
 30
0.0
 10
49.16357421875
 20
-37.54296875
 30
0.0
 10
49.017578125
 20
-37.1767578125
 30
0.0
 10
48.87255859375
 20
-36.810546875
 30
0.0
 10
48.798828125
 20
-36.4150390625
 30
0.0
 10
48.798828125
 20
-35.982421875
 30
0.0
 10
48.798828125
 20
-35.5517578125
 30
0.0
 10
48.87255859375
 20
-35.15625
 30
0.0
 10
49.017578125
 20
-34.7919921875
 30
0.0
 10
49.16357421875
 20
-34.42578125
 30
0.0
 10
49.3671875
 20
-34.1103515625
 30
0.0
 10
49.630859375
 20
-33.8408203125
 30
0.0
 10
49.89208984375
 20
-33.5732421875
 30
0.0
 10
50.21142578125
 20
-33.365234375
 30
0.0
 10
50.583984375
 20
-33.216796875
 30
0.0
 10
50.955078125
 20
-33.0654296875
 30
0.0
 10
51.375
 20
-32.9892578125
 30
0.0
 10
51.8359375
 20
-32.9892578125
 30
0.0
 10
52.216796875
 20
-32.9892578125
 30
0.0
 10
52.603515625
 20
-33.0732421875
 30
0.0
 10
52.99609375
 20
-33.2392578125
 30
0.0
 10
53.388671875
 20
-33.404296875
 30
0.0
 10
53.70703125
 20
-33.650390625
 30
0.0
 10
53.94921875
 20
-33.974609375
 30
0.0
 10
53.94921875
 20
-33.974609375
 30
0.0
 10
53.306640625
 20
-34.439453125
 30
0.0
 10
53.306640625
 20
-34.439453125
 30
0.0
  0
HATCH
  5
A0
330
1F
100
AcDbEntity
  8
Layer 1
 62
     7
420
 16777215
100
AcDbHatch
 10
0.0
 20
0.0
 30
0.0
210
0.0
220
0.0
230
1.0
  2
SOLID
 70
     1
 71
     0
 91
        1
 92
        1
 93
        1
 72
     4
 94
        3
 73
     0
 74
     1
 95
       83
 96
       79
 40
0.0
 40
0.0
 40
0.0
 40
0.0
 40
1.0
 40
1.0
 40
1.0
 40
2.0
 40
2.0
 40
2.0
 40
3.0
 40
3.0
 40
3.0
 40
4.0
 40
4.0
 40
4.0
 40
5.0
 40
5.0
 40
5.0
 40
6.0
 40
6.0
 40
6.0
 40
7.0
 40
7.0
 40
7.0
 40
8.0
 40
8.0
 40
8.0
 40
9.0
 40
9.0
 40
9.0
 40
10.0
 40
10.0
 40
10.0
 40
11.0
 40
11.0
 40
11.0
 40
12.0
 40
12.0
 40
12.0
 40
13.0
 40
13.0
 40
13.0
 40
14.0
 40
14.0
 40
14.0
 40
15.0
 40
15.0
 40
15.0
 40
16.0
 40
16.0
 40
16.0
 40
17.0
 40
17.0
 40
17.0
 40
18.0
 40
18.0
 40
18.0
 40
19.0
 40
19.0
 40
19.0
 40
20.0
 40
20.0
 40
20.0
 40
21.0
 40
21.0
 40
21.0
 40
22.0
 40
22.0
 40
22.0
 40
23.0
 40
23.0
 40
23.0
 40
24.0
 40
24.0
 40
24.0
 40
25.0
 40
25.0
 40
25.0
 40
26.0
 40
26.0
 40
26.0
 40
26.0
 10
53.306640625
 20
-34.439453125
 10
53.16796875
 20
-34.21875
 10
52.96875
 20
-34.0400390625
 10
52.705078125
 20
-33.89453125
 10
52.443359375
 20
-33.7548828125
 10
52.15625
 20
-33.68359375
 10
51.84765625
 20
-33.68359375
 10
51.515625
 20
-33.68359375
 10
51.21484375
 20
-33.744140625
 10
50.94921875
 20
-33.8603515625
 10
50.68359375
 20
-33.9765625
 10
50.45166015625
 20
-34.138671875
 10
50.26220703125
 20
-34.3466796875
 10
50.07177734375
 20
-34.5537109375
 10
49.92724609375
 20
-34.7978515625
 10
49.82568359375
 20
-35.0771484375
 10
49.7236328125
 20
-35.3583984375
 10
49.67431640625
 20
-35.6591796875
 10
49.67431640625
 20
-35.982421875
 10
49.67431640625
 20
-36.3076171875
 10
49.7236328125
 20
-36.6083984375
 10
49.82568359375
 20
-36.8857421875
 10
49.92724609375
 20
-37.1611328125
 10
50.06982421875
 20
-37.4013671875
 10
50.25634765625
 20
-37.6083984375
 10
50.44189453125
 20
-37.81640625
 10
50.671875
 20
-37.9765625
 10
50.9375
 20
-38.0947265625
 10
51.20703125
 20
-38.2138671875
 10
51.50390625
 20
-38.2734375
 10
51.8359375
 20
-38.2734375
 10
52.203125
 20
-38.2734375
 10
52.5078125
 20
-38.2041015625
 10
52.759765625
 20
-38.064453125
 10
53.009765625
 20
-37.9287109375
 10
53.216796875
 20
-37.75
 10
53.37890625
 20
-37.529296875
 10
53.37890625
 20
-37.529296875
 10
54.0
 20
-37.994140625
 10
54.0
 20
-37.994140625
 10
53.755859375
 20
-38.29296875
 10
53.458984375
 20
-38.53125
 10
53.10546875
 20
-38.7099609375
 10
52.751953125
 20
-38.8896484375
 10
52.330078125
 20
-38.9775390625
 10
51.8359375
 20
-38.9775390625
 10
51.375
 20
-38.9775390625
 10
50.955078125
 20
-38.9033203125
 10
50.583984375
 20
-38.751953125
 10
50.21142578125
 20
-38.6025390625
 10
49.89208984375
 20
-38.3955078125
 10
49.630859375
 20
-38.1259765625
 10
49.3671875
 20
-37.8583984375
 10
49.16357421875
 20
-37.54296875
 10
49.017578125
 20
-37.1767578125
 10
48.87255859375
 20
-36.810546875
 10
48.798828125
 20
-36.4150390625
 10
48.798828125
 20
-35.982421875
 10
48.798828125
 20
-35.5517578125
 10
48.87255859375
 20
-35.15625
 10
49.017578125
 20
-34.7919921875
 10
49.16357421875
 20
-34.42578125
 10
49.3671875
 20
-34.1103515625
 10
49.630859375
 20
-33.8408203125
 10
49.89208984375
 20
-33.5732421875
 10
50.21142578125
 20
-33.365234375
 10
50.583984375
 20
-33.216796875
 10
50.955078125
 20
-33.0654296875
 10
51.375
 20
-32.9892578125
 10
51.8359375
 20
-32.9892578125
 10
52.216796875
 20
-32.9892578125
 10
52.603515625
 20
-33.0732421875
 10
52.99609375
 20
-33.2392578125
 10
53.388671875
 20
-33.404296875
 10
53.70703125
 20
-33.650390625
 10
53.94921875
 20
-33.974609375
 10
53.94921875
 20
-33.974609375
 10
53.306640625
 20
-34.439453125
 10
53.306640625
 20
-34.439453125
 97
        0
 75
     2
 76
     1
 98
        0
  0
SPLINE
  5
A1
330
1F
100
AcDbEntity
  8
Layer 1
370
     0
100
AcDbSpline
210
0.0
220
0.0
230
1.0
 70
    11
 71
     3
 72
    77
 73
    73
 74
     0
 42
0.0000000001
 43
0.0000000001
 40
0.0
 40
0.0
 40
0.0
 40
0.0
 40
1.0
 40
1.0
 40
1.0
 40
2.0
 40
2.0
 40
2.0
 40
3.0
 40
3.0
 40
3.0
 40
4.0
 40
4.0
 40
4.0
 40
5.0
 40
5.0
 40
5.0
 40
6.0
 40
6.0
 40
6.0
 40
7.0
 40
7.0
 40
7.0
 40
8.0
 40
8.0
 40
8.0
 40
9.0
 40
9.0
 40
9.0
 40
10.0
 40
10.0
 40
10.0
 40
11.0
 40
11.0
 40
11.0
 40
12.0
 40
12.0
 40
12.0
 40
13.0
 40
13.0
 40
13.0
 40
14.0
 40
14.0
 40
14.0
 40
15.0
 40
15.0
 40
15.0
 40
16.0
 40
16.0
 40
16.0
 40
17.0
 40
17.0
 40
17.0
 40
18.0
 40
18.0
 40
18.0
 40
19.0
 40
19.0
 40
19.0
 40
20.0
 40
20.0
 40
20.0
 40
21.0
 40
21.0
 40
21.0
 40
22.0
 40
22.0
 40
22.0
 40
23.0
 40
23.0
 40
23.0
 40
24.0
 40
24.0
 40
24.0
 40
24.0
 10
64.5
 20
-33.5
 30
0.0
 10
64.5
 20
-33.5
 30
0.0
 10
63.0
 20
-33.5
 30
0.0
 10
63.0
 20
-33.5
 30
0.0
 10
63.0
 20
-33.5
 30
0.0
 10
63.0
 20
-37.0
 30
0.0
 10
63.0
 20
-37.0
 30
0.0
 10
63.0
 20
-37.21875
 30
0.0
 10
62.9658203125
 20
-37.537109375
 30
0.0
 10
63.005859375
 20
-37.677734375
 30
0.0
 10
63.0458984375
 20
-37.822265625
 30
0.0
 10
63.0859375
 20
-37.9326171875
 30
0.0
 10
63.1640625
 20
-38.0146484375
 30
0.0
 10
63.2412109375
 20
-38.0927734375
 30
0.0
 10
63.3232421875
 20
-38.146484375
 30
0.0
 10
63.4296875
 20
-38.1767578125
 30
0.0
 10
63.537109375
 20
-38.205078125
 30
0.0
 10
63.646484375
 20
-38.220703125
 30
0.0
 10
63.767578125
 20
-38.220703125
 30
0.0
 10
63.8828125
 20
-38.220703125
 30
0.0
 10
64.0009765625
 20
-38.203125
 30
0.0
 10
64.126953125
 20
-38.1708984375
 30
0.0
 10
64.25390625
 20
-38.13671875
 30
0.0
 10
64.37109375
 20
-38.0908203125
 30
0.0
 10
64.486328125
 20
-38.0302734375
 30
0.0
 10
64.486328125
 20
-38.0302734375
 30
0.0
 10
64.5224609375
 20
-38.7744140625
 30
0.0
 10
64.5224609375
 20
-38.7744140625
 30
0.0
 10
64.375
 20
-38.8330078125
 30
0.0
 10
64.2236328125
 20
-38.876953125
 30
0.0
 10
64.0634765625
 20
-38.9052734375
 30
0.0
 10
63.904296875
 20
-38.9375
 30
0.0
 10
63.73046875
 20
-38.951171875
 30
0.0
 10
63.54296875
 20
-38.951171875
 30
0.0
 10
63.3876953125
 20
-38.951171875
 30
0.0
 10
63.2236328125
 20
-38.9306640625
 30
0.0
 10
63.0537109375
 20
-38.888671875
 30
0.0
 10
62.8818359375
 20
-38.8447265625
 30
0.0
 10
62.724609375
 20
-38.7666015625
 30
0.0
 10
62.5751953125
 20
-38.6484375
 30
0.0
 10
62.4296875
 20
-38.5322265625
 30
0.0
 10
62.2724609375
 20
-38.37109375
 30
0.0
 10
62.1787109375
 20
-38.1708984375
 30
0.0
 10
62.0849609375
 20
-37.96875
 30
0.0
 10
62.0
 20
-37.7060546875
 30
0.0
 10
62.0
 20
-37.376953125
 30
0.0
 10
62.0
 20
-37.376953125
 30
0.0
 10
62.0
 20
-33.5
 30
0.0
 10
62.0
 20
-33.5
 30
0.0
 10
62.0
 20
-33.5
 30
0.0
 10
61.0
 20
-33.5
 30
0.0
 10
61.0
 20
-33.5
 30
0.0
 10
61.0
 20
-33.5
 30
0.0
 10
61.0185546875
 20
-32.5107421875
 30
0.0
 10
61.0185546875
 20
-32.5107421875
 30
0.0
 10
61.0185546875
 20
-32.5107421875
 30
0.0
 10
62.0
 20
-32.5107421875
 30
0.0
 10
62.0
 20
-32.5107421875
 30
0.0
 10
62.0
 20
-32.5107421875
 30
0.0
 10
62.0
 20
-31.5
 30
0.0
 10
62.0
 20
-31.5
 30
0.0
 10
62.0
 20
-31.5
 30
0.0
 10
62.982421875
 20
-31.5
 30
0.0
 10
62.982421875
 20
-31.5
 30
0.0
 10
62.982421875
 20
-31.5
 30
0.0
 10
63.0
 20
-32.5
 30
0.0
 10
63.0
 20
-32.5
 30
0.0
 10
63.0
 20
-32.5
 30
0.0
 10
64.5
 20
-32.5
 30
0.0
 10
64.5
 20
-32.5
 30
0.0
 10
64.5
 20
-32.5
 30
0.0
 10
64.5
 20
-33.5
 30
0.0
 10
64.5
 20
-33.5
 30
0.0
  0
HATCH
  5
A2
330
1F
100
AcDbEntity
  8
Layer 1
 62
     7
420
 16777215
100
AcDbHatch
 10
0.0
 20
0.0
 30
0.0
210
0.0
220
0.0
230
1.0
  2
SOLID
 70
     1
 71
     0
 91
        1
 92
        1
 93
        1
 72
     4
 94
        3
 73
     0
 74
     1
 95
       77
 96
       73
 40
0.0
 40
0.0
 40
0.0
 40
0.0
 40
1.0
 40
1.0
 40
1.0
 40
2.0
 40
2.0
 40
2.0
 40
3.0
 40
3.0
 40
3.0
 40
4.0
 40
4.0
 40
4.0
 40
5.0
 40
5.0
 40
5.0
 40
6.0
 40
6.0
 40
6.0
 40
7.0
 40
7.0
 40
7.0
 40
8.0
 40
8.0
 40
8.0
 40
9.0
 40
9.0
 40
9.0
 40
10.0
 40
10.0
 40
10.0
 40
11.0
 40
11.0
 40
11.0
 40
12.0
 40
12.0
 40
12.0
 40
13.0
 40
13.0
 40
13.0
 40
14.0
 40
14.0
 40
14.0
 40
15.0
 40
15.0
 40
15.0
 40
16.0
 40
16.0
 40
16.0
 40
17.0
 40
17.0
 40
17.0
 40
18.0
 40
18.0
 40
18.0
 40
19.0
 40
19.0
 40
19.0
 40
20.0
 40
20.0
 40
20.0
 40
21.0
 40
21.0
 40
21.0
 40
22.0
 40
22.0
 40
22.0
 40
23.0
 40
23.0
 40
23.0
 40
24.0
 40
24.0
 40
24.0
 40
24.0
 10
64.5
 20
-33.5
 10
64.5
 20
-33.5
 10
63.0
 20
-33.5
 10
63.0
 20
-33.5
 10
63.0
 20
-33.5
 10
63.0
 20
-37.0
 10
63.0
 20
-37.0
 10
63.0
 20
-37.21875
 10
62.9658203125
 20
-37.537109375
 10
63.005859375
 20
-37.677734375
 10
63.0458984375
 20
-37.822265625
 10
63.0859375
 20
-37.9326171875
 10
63.1640625
 20
-38.0146484375
 10
63.2412109375
 20
-38.0927734375
 10
63.3232421875
 20
-38.146484375
 10
63.4296875
 20
-38.1767578125
 10
63.537109375
 20
-38.205078125
 10
63.646484375
 20
-38.220703125
 10
63.767578125
 20
-38.220703125
 10
63.8828125
 20
-38.220703125
 10
64.0009765625
 20
-38.203125
 10
64.126953125
 20
-38.1708984375
 10
64.25390625
 20
-38.13671875
 10
64.37109375
 20
-38.0908203125
 10
64.486328125
 20
-38.0302734375
 10
64.486328125
 20
-38.0302734375
 10
64.5224609375
 20
-38.7744140625
 10
64.5224609375
 20
-38.7744140625
 10
64.375
 20
-38.8330078125
 10
64.2236328125
 20
-38.876953125
 10
64.0634765625
 20
-38.9052734375
 10
63.904296875
 20
-38.9375
 10
63.73046875
 20
-38.951171875
 10
63.54296875
 20
-38.951171875
 10
63.3876953125
 20
-38.951171875
 10
63.2236328125
 20
-38.9306640625
 10
63.0537109375
 20
-38.888671875
 10
62.8818359375
 20
-38.8447265625
 10
62.724609375
 20
-38.7666015625
 10
62.5751953125
 20
-38.6484375
 10
62.4296875
 20
-38.5322265625
 10
62.2724609375
 20
-38.37109375
 10
62.1787109375
 20
-38.1708984375
 10
62.0849609375
 20
-37.96875
 10
62.0
 20
-37.7060546875
 10
62.0
 20
-37.376953125
 10
62.0
 20
-37.376953125
 10
62.0
 20
-33.5
 10
62.0
 20
-33.5
 10
62.0
 20
-33.5
 10
61.0
 20
-33.5
 10
61.0
 20
-33.5
 10
61.0
 20
-33.5
 10
61.0185546875
 20
-32.5107421875
 10
61.0185546875
 20
-32.5107421875
 10
61.0185546875
 20
-32.5107421875
 10
62.0
 20
-32.5107421875
 10
62.0
 20
-32.5107421875
 10
62.0
 20
-32.5107421875
 10
62.0
 20
-31.5
 10
62.0
 20
-31.5
 10
62.0
 20
-31.5
 10
62.982421875
 20
-31.5
 10
62.982421875
 20
-31.5
 10
62.982421875
 20
-31.5
 10
63.0
 20
-32.5
 10
63.0
 20
-32.5
 10
63.0
 20
-32.5
 10
64.5
 20
-32.5
 10
64.5
 20
-32.5
 10
64.5
 20
-32.5
 10
64.5
 20
-33.5
 10
64.5
 20
-33.5
 97
        0
 75
     2
 76
     1
 98
        0
  0
POLYLINE
  5
A3
330
1F
100
AcDbEntity
  8
Layer 1
370
     0
100
AcDb2dPolyline
 66
     1
 10
0.0
 20
0.0
 30
0.0
  0
VERTEX
  5
A4
330
A3
100
AcDbEntity
  8
Layer 1
370
     0
100
AcDbVertex
100
AcDb2dVertex
 10
72.0
 20
-39.0
 30
0.0
  0
VERTEX
  5
A5
330
A3
100
AcDbEntity
  8
Layer 1
370
     0
100
AcDbVertex
100
AcDb2dVertex
 10
71.0
 20
-39.0
 30
0.0
  0
VERTEX
  5
A6
330
A3
100
AcDbEntity
  8
Layer 1
370
     0
100
AcDbVertex
100
AcDb2dVertex
 10
71.017578125
 20
-33.0
 30
0.0
  0
VERTEX
  5
A7
330
A3
100
AcDbEntity
  8
Layer 1
370
     0
100
AcDbVertex
100
AcDb2dVertex
 10
72.0
 20
-33.0
 30
0.0
  0
VERTEX
  5
A8
330
A3
100
AcDbEntity
  8
Layer 1
370
     0
100
AcDbVertex
100
AcDb2dVertex
 10
72.0
 20
-39.0
 30
0.0
  0
SEQEND
  5
A9
330
A3
100
AcDbEntity
  8
Layer 1
370
     0
  0
HATCH
  5
AA
330
1F
100
AcDbEntity
  8
Layer 1
 62
     7
420
 16777215
100
AcDbHatch
 10
0.0
 20
0.0
 30
0.0
210
0.0
220
0.0
230
1.0
  2
SOLID
 70
     1
 71
     0
 91
        1
 92
        1
 93
        4
 72
     1
 10
72.0
 20
-39.0
 11
71.0
 21
-39.0
 72
     1
 10
71.0
 20
-39.0
 11
71.017578125
 21
-33.0
 72
     1
 10
71.017578125
 20
-33.0
 11
72.0
 21
-33.0
 72
     1
 10
72.0
 20
-33.0
 11
72.0
 21
-39.0
 97
        0
 75
     2
 76
     1
 98
        0
  0
POLYLINE
  5
AB
330
1F
100
AcDbEntity
  8
Layer 1
370
     0
100
AcDb2dPolyline
 66
     1
 10
0.0
 20
0.0
 30
0.0
  0
VERTEX
  5
AC
330
AB
100
AcDbEntity
  8
Layer 1
370
     0
100
AcDbVertex
100
AcDb2dVertex
 10
82.5
 20
-39.0
 30
0.0
  0
VERTEX
  5
AD
330
AB
100
AcDbEntity
  8
Layer 1
370
     0
100
AcDbVertex
100
AcDb2dVertex
 10
81.5
 20
-39.0
 30
0.0
  0
VERTEX
  5
AE
330
AB
100
AcDbEntity
  8
Layer 1
370
     0
100
AcDbVertex
100
AcDb2dVertex
 10
79.0
 20
-33.0
 30
0.0
  0
VERTEX
  5
AF
330
AB
100
AcDbEntity
  8
Layer 1
370
     0
100
AcDbVertex
100
AcDb2dVertex
 10
80.0
 20
-33.0
 30
0.0
  0
VERTEX
  5
B0
330
AB
100
AcDbEntity
  8
Layer 1
370
     0
100
AcDbVertex
100
AcDb2dVertex
 10
82.0
 20
-38.0
 30
0.0
  0
VERTEX
  5
B1
330
AB
100
AcDbEntity
  8
Layer 1
370
     0
100
AcDbVertex
100
AcDb2dVertex
 10
82.0
 20
-38.0
 30
0.0
  0
VERTEX
  5
B2
330
AB
100
AcDbEntity
  8
Layer 1
370
     0
100
AcDbVertex
100
AcDb2dVertex
 10
84.0
 20
-33.0
 30
0.0
  0
VERTEX
  5
B3
330
AB
100
AcDbEntity
  8
Layer 1
370
     0
100
AcDbVertex
100
AcDb2dVertex
 10
85.0
 20
-33.0
 30
0.0
  0
VERTEX
  5
B4
330
AB
100
AcDbEntity
  8
Layer 1
370
     0
100
AcDbVertex
100
AcDb2dVertex
 10
82.5
 20
-39.0
 30
0.0
  0
SEQEND
  5
B5
330
AB
100
AcDbEntity
  8
Layer 1
370
     0
  0
HATCH
  5
B6
330
1F
100
AcDbEntity
  8
Layer 1
 62
     7
420
 16777215
100
AcDbHatch
 10
0.0
 20
0.0
 30
0.0
210
0.0
220
0.0
230
1.0
  2
SOLID
 70
     1
 71
     0
 91
        1
 92
        1
 93
        7
 72
     1
 10
82.5
 20
-39.0
 11
81.5
 21
-39.0
 72
     1
 10
81.5
 20
-39.0
 11
79.0
 21
-33.0
 72
     1
 10
79.0
 20
-33.0
 11
80.0
 21
-33.0
 72
     1
 10
80.0
 20
-33.0
 11
82.0
 21
-38.0
 72
     1
 10
82.0
 20
-38.0
 11
84.0
 21
-33.0
 72
     1
 10
84.0
 20
-33.0
 11
85.0
 21
-33.0
 72
     1
 10
85.0
 20
-33.0
 11
82.5
 21
-39.0
 97
        0
 75
     2
 76
     1
 98
        0
  0
SPLINE
  5
B7
330
1F
100
AcDbEntity
  8
Layer 1
370
     0
100
AcDbSpline
210
0.0
220
0.0
230
1.0
 70
    11
 71
     3
 72
    53
 73
    49
 74
     0
 42
0.0000000001
 43
0.0000000001
 40
0.0
 40
0.0
 40
0.0
 40
0.0
 40
1.0
 40
1.0
 40
1.0
 40
2.0
 40
2.0
 40
2.0
 40
3.0
 40
3.0
 40
3.0
 40
4.0
 40
4.0
 40
4.0
 40
5.0
 40
5.0
 40
5.0
 40
6.0
 40
6.0
 40
6.0
 40
7.0
 40
7.0
 40
7.0
 40
8.0
 40
8.0
 40
8.0
 40
9.0
 40
9.0
 40
9.0
 40
10.0
 40
10.0
 40
10.0
 40
11.0
 40
11.0
 40
11.0
 40
12.0
 40
12.0
 40
12.0
 40
13.0
 40
13.0
 40
13.0
 40
14.0
 40
14.0
 40
14.0
 40
15.0
 40
15.0
 40
15.0
 40
16.0
 40
16.0
 40
16.0
 40
16.0
 10
97.0
 20
-35.986328125
 30
0.0
 10
97.0
 20
-36.41796875
 30
0.0
 10
96.92578125
 20
-36.8125
 30
0.0
 10
96.775390625
 20
-37.177734375
 30
0.0
 10
96.6279296875
 20
-37.5439453125
 30
0.0
 10
96.4189453125
 20
-37.859375
 30
0.0
 10
96.1513671875
 20
-38.1259765625
 30
0.0
 10
95.8837890625
 20
-38.39453125
 30
0.0
 10
95.564453125
 20
-38.6015625
 30
0.0
 10
95.193359375
 20
-38.7509765625
 30
0.0
 10
94.822265625
 20
-38.9013671875
 30
0.0
 10
94.4140625
 20
-38.974609375
 30
0.0
 10
93.9697265625
 20
-38.974609375
 30
0.0
 10
93.5322265625
 20
-38.974609375
 30
0.0
 10
93.1259765625
 20
-38.9013671875
 30
0.0
 10
92.7568359375
 20
-38.7509765625
 30
0.0
 10
92.384765625
 20
-38.6015625
 30
0.0
 10
92.06640625
 20
-38.39453125
 30
0.0
 10
91.7998046875
 20
-38.1259765625
 30
0.0
 10
91.53125
 20
-37.859375
 30
0.0
 10
91.3232421875
 20
-37.5439453125
 30
0.0
 10
91.173828125
 20
-37.177734375
 30
0.0
 10
91.0244140625
 20
-36.8125
 30
0.0
 10
90.9501953125
 20
-36.41796875
 30
0.0
 10
90.9501953125
 20
-35.986328125
 30
0.0
 10
90.9501953125
 20
-35.556640625
 30
0.0
 10
91.0244140625
 20
-35.162109375
 30
0.0
 10
91.173828125
 20
-34.798828125
 30
0.0
 10
91.3232421875
 20
-34.4326171875
 30
0.0
 10
91.53125
 20
-34.1171875
 30
0.0
 10
91.7998046875
 20
-33.8486328125
 30
0.0
 10
92.06640625
 20
-33.58203125
 30
0.0
 10
92.384765625
 20
-33.375
 30
0.0
 10
92.7568359375
 20
-33.2255859375
 30
0.0
 10
93.1259765625
 20
-33.0751953125
 30
0.0
 10
93.5322265625
 20
-33.0
 30
0.0
 10
93.9697265625
 20
-33.0
 30
0.0
 10
94.4140625
 20
-33.0
 30
0.0
 10
94.822265625
 20
-33.0751953125
 30
0.0
 10
95.193359375
 20
-33.2255859375
 30
0.0
 10
95.564453125
 20
-33.375
 30
0.0
 10
95.8837890625
 20
-33.58203125
 30
0.0
 10
96.1513671875
 20
-33.8486328125
 30
0.0
 10
96.4189453125
 20
-34.1171875
 30
0.0
 10
96.6279296875
 20
-34.4326171875
 30
0.0
 10
96.775390625
 20
-34.798828125
 30
0.0
 10
96.92578125
 20
-35.162109375
 30
0.0
 10
97.0
 20
-35.556640625
 30
0.0
 10
97.0
 20
-35.986328125
 30
0.0
  0
SPLINE
  5
B8
330
1F
100
AcDbEntity
  8
Layer 1
370
     0
100
AcDbSpline
210
0.0
220
0.0
230
1.0
 70
    11
 71
     3
 72
    53
 73
    49
 74
     0
 42
0.0000000001
 43
0.0000000001
 40
0.0
 40
0.0
 40
0.0
 40
0.0
 40
1.0
 40
1.0
 40
1.0
 40
2.0
 40
2.0
 40
2.0
 40
3.0
 40
3.0
 40
3.0
 40
4.0
 40
4.0
 40
4.0
 40
5.0
 40
5.0
 40
5.0
 40
6.0
 40
6.0
 40
6.0
 40
7.0
 40
7.0
 40
7.0
 40
8.0
 40
8.0
 40
8.0
 40
9.0
 40
9.0
 40
9.0
 40
10.0
 40
10.0
 40
10.0
 40
11.0
 40
11.0
 40
11.0
 40
12.0
 40
12.0
 40
12.0
 40
13.0
 40
13.0
 40
13.0
 40
14.0
 40
14.0
 40
14.0
 40
15.0
 40
15.0
 40
15.0
 40
16.0
 40
16.0
 40
16.0
 40
16.0
 10
96.1279296875
 20
-35.986328125
 30
0.0
 10
96.1279296875
 20
-35.6708984375
 30
0.0
 10
96.0771484375
 20
-35.375
 30
0.0
 10
95.974609375
 20
-35.0947265625
 30
0.0
 10
95.873046875
 20
-34.81640625
 30
0.0
 10
95.73046875
 20
-34.572265625
 30
0.0
 10
95.5439453125
 20
-34.3671875
 30
0.0
 10
95.3583984375
 20
-34.16015625
 30
0.0
 10
95.1328125
 20
-33.99609375
 30
0.0
 10
94.8662109375
 20
-33.8759765625
 30
0.0
 10
94.6005859375
 20
-33.75390625
 30
0.0
 10
94.2998046875
 20
-33.6923828125
 30
0.0
 10
93.9697265625
 20
-33.6923828125
 30
0.0
 10
93.63671875
 20
-33.6923828125
 30
0.0
 10
93.33984375
 20
-33.75390625
 30
0.0
 10
93.0771484375
 20
-33.8759765625
 30
0.0
 10
92.814453125
 20
-33.99609375
 30
0.0
 10
92.5908203125
 20
-34.16015625
 30
0.0
 10
92.40625
 20
-34.3671875
 30
0.0
 10
92.2177734375
 20
-34.572265625
 30
0.0
 10
92.076171875
 20
-34.81640625
 30
0.0
 10
91.974609375
 20
-35.0947265625
 30
0.0
 10
91.873046875
 20
-35.375
 30
0.0
 10
91.822265625
 20
-35.6708984375
 30
0.0
 10
91.822265625
 20
-35.986328125
 30
0.0
 10
91.822265625
 20
-36.3037109375
 30
0.0
 10
91.873046875
 20
-36.6015625
 30
0.0
 10
91.974609375
 20
-36.8798828125
 30
0.0
 10
92.076171875
 20
-37.16015625
 30
0.0
 10
92.2177734375
 20
-37.40234375
 30
0.0
 10
92.40625
 20
-37.609375
 30
0.0
 10
92.5908203125
 20
-37.81640625
 30
0.0
 10
92.814453125
 20
-37.9765625
 30
0.0
 10
93.0771484375
 20
-38.0947265625
 30
0.0
 10
93.33984375
 20
-38.212890625
 30
0.0
 10
93.63671875
 20
-38.2724609375
 30
0.0
 10
93.9697265625
 20
-38.2724609375
 30
0.0
 10
94.2998046875
 20
-38.2724609375
 30
0.0
 10
94.6005859375
 20
-38.212890625
 30
0.0
 10
94.8662109375
 20
-38.0947265625
 30
0.0
 10
95.1328125
 20
-37.9765625
 30
0.0
 10
95.3583984375
 20
-37.81640625
 30
0.0
 10
95.5439453125
 20
-37.609375
 30
0.0
 10
95.73046875
 20
-37.40234375
 30
0.0
 10
95.873046875
 20
-37.16015625
 30
0.0
 10
95.974609375
 20
-36.8798828125
 30
0.0
 10
96.0771484375
 20
-36.6015625
 30
0.0
 10
96.1279296875
 20
-36.3037109375
 30
0.0
 10
96.1279296875
 20
-35.986328125
 30
0.0
  0
HATCH
  5
B9
330
1F
100
AcDbEntity
  8
Layer 1
 62
     7
420
 16777215
100
AcDbHatch
 10
0.0
 20
0.0
 30
0.0
210
0.0
220
0.0
230
1.0
  2
SOLID
 70
     1
 71
     0
 91
        2
 92
        1
 93
        1
 72
     4
 94
        3
 73
     0
 74
     1
 95
       53
 96
       49
 40
0.0
 40
0.0
 40
0.0
 40
0.0
 40
1.0
 40
1.0
 40
1.0
 40
2.0
 40
2.0
 40
2.0
 40
3.0
 40
3.0
 40
3.0
 40
4.0
 40
4.0
 40
4.0
 40
5.0
 40
5.0
 40
5.0
 40
6.0
 40
6.0
 40
6.0
 40
7.0
 40
7.0
 40
7.0
 40
8.0
 40
8.0
 40
8.0
 40
9.0
 40
9.0
 40
9.0
 40
10.0
 40
10.0
 40
10.0
 40
11.0
 40
11.0
 40
11.0
 40
12.0
 40
12.0
 40
12.0
 40
13.0
 40
13.0
 40
13.0
 40
14.0
 40
14.0
 40
14.0
 40
15.0
 40
15.0
 40
15.0
 40
16.0
 40
16.0
 40
16.0
 40
16.0
 10
97.0
 20
-35.986328125
 10
97.0
 20
-36.41796875
 10
96.92578125
 20
-36.8125
 10
96.775390625
 20
-37.177734375
 10
96.6279296875
 20
-37.5439453125
 10
96.4189453125
 20
-37.859375
 10
96.1513671875
 20
-38.1259765625
 10
95.8837890625
 20
-38.39453125
 10
95.564453125
 20
-38.6015625
 10
95.193359375
 20
-38.7509765625
 10
94.822265625
 20
-38.9013671875
 10
94.4140625
 20
-38.974609375
 10
93.9697265625
 20
-38.974609375
 10
93.5322265625
 20
-38.974609375
 10
93.1259765625
 20
-38.9013671875
 10
92.7568359375
 20
-38.7509765625
 10
92.384765625
 20
-38.6015625
 10
92.06640625
 20
-38.39453125
 10
91.7998046875
 20
-38.1259765625
 10
91.53125
 20
-37.859375
 10
91.3232421875
 20
-37.5439453125
 10
91.173828125
 20
-37.177734375
 10
91.0244140625
 20
-36.8125
 10
90.9501953125
 20
-36.41796875
 10
90.9501953125
 20
-35.986328125
 10
90.9501953125
 20
-35.556640625
 10
91.0244140625
 20
-35.162109375
 10
91.173828125
 20
-34.798828125
 10
91.3232421875
 20
-34.4326171875
 10
91.53125
 20
-34.1171875
 10
91.7998046875
 20
-33.8486328125
 10
92.06640625
 20
-33.58203125
 10
92.384765625
 20
-33.375
 10
92.7568359375
 20
-33.2255859375
 10
93.1259765625
 20
-33.0751953125
 10
93.5322265625
 20
-33.0
 10
93.9697265625
 20
-33.0
 10
94.4140625
 20
-33.0
 10
94.822265625
 20
-33.0751953125
 10
95.193359375
 20
-33.2255859375
 10
95.564453125
 20
-33.375
 10
95.8837890625
 20
-33.58203125
 10
96.1513671875
 20
-33.8486328125
 10
96.4189453125
 20
-34.1171875
 10
96.6279296875
 20
-34.4326171875
 10
96.775390625
 20
-34.798828125
 10
96.92578125
 20
-35.162109375
 10
97.0
 20
-35.556640625
 10
97.0
 20
-35.986328125
 97
        0
 92
        1
 93
        1
 72
     4
 94
        3
 73
     0
 74
     1
 95
       53
 96
       49
 40
0.0
 40
0.0
 40
0.0
 40
0.0
 40
1.0
 40
1.0
 40
1.0
 40
2.0
 40
2.0
 40
2.0
 40
3.0
 40
3.0
 40
3.0
 40
4.0
 40
4.0
 40
4.0
 40
5.0
 40
5.0
 40
5.0
 40
6.0
 40
6.0
 40
6.0
 40
7.0
 40
7.0
 40
7.0
 40
8.0
 40
8.0
 40
8.0
 40
9.0
 40
9.0
 40
9.0
 40
10.0
 40
10.0
 40
10.0
 40
11.0
 40
11.0
 40
11.0
 40
12.0
 40
12.0
 40
12.0
 40
13.0
 40
13.0
 40
13.0
 40
14.0
 40
14.0
 40
14.0
 40
15.0
 40
15.0
 40
15.0
 40
16.0
 40
16.0
 40
16.0
 40
16.0
 10
96.1279296875
 20
-35.986328125
 10
96.1279296875
 20
-35.6708984375
 10
96.0771484375
 20
-35.375
 10
95.974609375
 20
-35.0947265625
 10
95.873046875
 20
-34.81640625
 10
95.73046875
 20
-34.572265625
 10
95.5439453125
 20
-34.3671875
 10
95.3583984375
 20
-34.16015625
 10
95.1328125
 20
-33.99609375
 10
94.8662109375
 20
-33.8759765625
 10
94.6005859375
 20
-33.75390625
 10
94.2998046875
 20
-33.6923828125
 10
93.9697265625
 20
-33.6923828125
 10
93.63671875
 20
-33.6923828125
 10
93.33984375
 20
-33.75390625
 10
93.0771484375
 20
-33.8759765625
 10
92.814453125
 20
-33.99609375
 10
92.5908203125
 20
-34.16015625
 10
92.40625
 20
-34.3671875
 10
92.2177734375
 20
-34.572265625
 10
92.076171875
 20
-34.81640625
 10
91.974609375
 20
-35.0947265625
 10
91.873046875
 20
-35.375
 10
91.822265625
 20
-35.6708984375
 10
91.822265625
 20
-35.986328125
 10
91.822265625
 20
-36.3037109375
 10
91.873046875
 20
-36.6015625
 10
91.974609375
 20
-36.8798828125
 10
92.076171875
 20
-37.16015625
 10
92.2177734375
 20
-37.40234375
 10
92.40625
 20
-37.609375
 10
92.5908203125
 20
-37.81640625
 10
92.814453125
 20
-37.9765625
 10
93.0771484375
 20
-38.0947265625
 10
93.33984375
 20
-38.212890625
 10
93.63671875
 20
-38.2724609375
 10
93.9697265625
 20
-38.2724609375
 10
94.2998046875
 20
-38.2724609375
 10
94.6005859375
 20
-38.212890625
 10
94.8662109375
 20
-38.0947265625
 10
95.1328125
 20
-37.9765625
 10
95.3583984375
 20
-37.81640625
 10
95.5439453125
 20
-37.609375
 10
95.73046875
 20
-37.40234375
 10
95.873046875
 20
-37.16015625
 10
95.974609375
 20
-36.8798828125
 10
96.0771484375
 20
-36.6015625
 10
96.1279296875
 20
-36.3037109375
 10
96.1279296875
 20
-35.986328125
 97
        0
 75
     2
 76
     1
 98
        0
  0
POLYLINE
  5
BA
330
1F
100
AcDbEntity
  8
Layer 1
370
     0
100
AcDb2dPolyline
 66
     1
 10
0.0
 20
0.0
 30
0.0
  0
VERTEX
  5
BB
330
BA
100
AcDbEntity
  8
Layer 1
370
     0
100
AcDbVertex
100
AcDb2dVertex
 10
86.0
 20
-31.0
 30
0.0
  0
VERTEX
  5
BC
330
BA
100
AcDbEntity
  8
Layer 1
370
     0
100
AcDbVertex
100
AcDb2dVertex
 10
97.0
 20
-31.0
 30
0.0
  0
VERTEX
  5
BD
330
BA
100
AcDbEntity
  8
Layer 1
370
     0
100
AcDbVertex
100
AcDb2dVertex
 10
97.0
 20
-28.033203125
 30
0.0
  0
VERTEX
  5
BE
330
BA
100
AcDbEntity
  8
Layer 1
370
     0
100
AcDbVertex
100
AcDb2dVertex
 10
86.0
 20
-28.033203125
 30
0.0
  0
VERTEX
  5
BF
330
BA
100
AcDbEntity
  8
Layer 1
370
     0
100
AcDbVertex
100
AcDb2dVertex
 10
86.0
 20
-31.0
 30
0.0
  0
SEQEND
  5
C0
330
BA
100
AcDbEntity
  8
Layer 1
370
     0
  0
HATCH
  5
C1
330
1F
100
AcDbEntity
  8
Layer 1
 62
     7
420
 16777215
100
AcDbHatch
 10
0.0
 20
0.0
 30
0.0
210
0.0
220
0.0
230
1.0
  2
SOLID
 70
     1
 71
     0
 91
        1
 92
        1
 93
        4
 72
     1
 10
86.0
 20
-31.0
 11
97.0
 21
-31.0
 72
     1
 10
97.0
 20
-31.0
 11
97.0
 21
-28.033203125
 72
     1
 10
97.0
 20
-28.033203125
 11
86.0
 21
-28.033203125
 72
     1
 10
86.0
 20
-28.033203125
 11
86.0
 21
-31.0
 97
        0
 75
     2
 76
     1
 98
        0
  0
SPLINE
  5
C2
330
1F
100
AcDbEntity
  8
Layer 1
370
     0
100
AcDbSpline
210
0.0
220
0.0
230
1.0
 70
    11
 71
     3
 72
    77
 73
    73
 74
     0
 42
0.0000000001
 43
0.0000000001
 40
0.0
 40
0.0
 40
0.0
 40
0.0
 40
1.0
 40
1.0
 40
1.0
 40
2.0
 40
2.0
 40
2.0
 40
3.0
 40
3.0
 40
3.0
 40
4.0
 40
4.0
 40
4.0
 40
5.0
 40
5.0
 40
5.0
 40
6.0
 40
6.0
 40
6.0
 40
7.0
 40
7.0
 40
7.0
 40
8.0
 40
8.0
 40
8.0
 40
9.0
 40
9.0
 40
9.0
 40
10.0
 40
10.0
 40
10.0
 40
11.0
 40
11.0
 40
11.0
 40
12.0
 40
12.0
 40
12.0
 40
13.0
 40
13.0
 40
13.0
 40
14.0
 40
14.0
 40
14.0
 40
15.0
 40
15.0
 40
15.0
 40
16.0
 40
16.0
 40
16.0
 40
17.0
 40
17.0
 40
17.0
 40
18.0
 40
18.0
 40
18.0
 40
19.0
 40
19.0
 40
19.0
 40
20.0
 40
20.0
 40
20.0
 40
21.0
 40
21.0
 40
21.0
 40
22.0
 40
22.0
 40
22.0
 40
23.0
 40
23.0
 40
23.0
 40
24.0
 40
24.0
 40
24.0
 40
24.0
 10
40.10009765625
 20
-35.8251953125
 30
0.0
 10
40.10009765625
 20
-35.880859375
 30
0.0
 10
40.10009765625
 20
-35.94140625
 30
0.0
 10
40.10009765625
 20
-36.0068359375
 30
0.0
 10
40.10009765625
 20
-36.0712890625
 30
0.0
 10
40.09619140625
 20
-36.1416015625
 30
0.0
 10
40.08837890625
 20
-36.2138671875
 30
0.0
 10
40.08837890625
 20
-36.2138671875
 30
0.0
 10
35.3642578125
 20
-36.2138671875
 30
0.0
 10
35.3642578125
 20
-36.2138671875
 30
0.0
 10
35.3720703125
 20
-36.498046875
 30
0.0
 10
35.42919921875
 20
-36.765625
 30
0.0
 10
35.53515625
 20
-37.0185546875
 30
0.0
 10
35.64013671875
 20
-37.2685546875
 30
0.0
 10
35.78662109375
 20
-37.4873046875
 30
0.0
 10
35.97314453125
 20
-37.6748046875
 30
0.0
 10
36.16015625
 20
-37.861328125
 30
0.0
 10
36.37890625
 20
-38.009765625
 30
0.0
 10
36.630859375
 20
-38.1201171875
 30
0.0
 10
36.8818359375
 20
-38.228515625
 30
0.0
 10
37.15380859375
 20
-38.283203125
 30
0.0
 10
37.44677734375
 20
-38.283203125
 30
0.0
 10
37.8759765625
 20
-38.283203125
 30
0.0
 10
38.2470703125
 20
-38.1845703125
 30
0.0
 10
38.56005859375
 20
-37.986328125
 30
0.0
 10
38.8720703125
 20
-37.787109375
 30
0.0
 10
39.1103515625
 20
-37.5576171875
 30
0.0
 10
39.2724609375
 20
-37.296875
 30
0.0
 10
39.2724609375
 20
-37.296875
 30
0.0
 10
39.89306640625
 20
-37.78515625
 30
0.0
 10
39.89306640625
 20
-37.78515625
 30
0.0
 10
39.55224609375
 20
-38.21484375
 30
0.0
 10
39.1767578125
 20
-38.5234375
 30
0.0
 10
38.76708984375
 20
-38.7099609375
 30
0.0
 10
38.357421875
 20
-38.896484375
 30
0.0
 10
37.91748046875
 20
-38.9892578125
 30
0.0
 10
37.44677734375
 20
-38.9892578125
 30
0.0
 10
37.0244140625
 20
-38.9892578125
 30
0.0
 10
36.6328125
 20
-38.9150390625
 30
0.0
 10
36.27197265625
 20
-38.7646484375
 30
0.0
 10
35.91015625
 20
-38.6142578125
 30
0.0
 10
35.599609375
 20
-38.4052734375
 30
0.0
 10
35.3408203125
 20
-38.1376953125
 30
0.0
 10
35.08056640625
 20
-37.869140625
 30
0.0
 10
34.87548828125
 20
-37.552734375
 30
0.0
 10
34.7255859375
 20
-37.1875
 30
0.0
 10
34.5751953125
 20
-36.822265625
 30
0.0
 10
34.5
 20
-36.4248046875
 30
0.0
 10
34.5
 20
-35.9951171875
 30
0.0
 10
34.5
 20
-35.564453125
 30
0.0
 10
34.5732421875
 20
-35.1669921875
 30
0.0
 10
34.7197265625
 20
-34.8017578125
 30
0.0
 10
34.865234375
 20
-34.4365234375
 30
0.0
 10
35.06884765625
 20
-34.1201171875
 30
0.0
 10
35.32763671875
 20
-33.8515625
 30
0.0
 10
35.58740234375
 20
-33.5849609375
 30
0.0
 10
35.892578125
 20
-33.3759765625
 30
0.0
 10
36.24072265625
 20
-33.224609375
 30
0.0
 10
36.58984375
 20
-33.0751953125
 30
0.0
 10
36.966796875
 20
-33.0
 30
0.0
 10
37.37353515625
 20
-33.0
 30
0.0
 10
37.81982421875
 20
-33.0
 30
0.0
 10
38.21337890625
 20
-33.0751953125
 30
0.0
 10
38.55419921875
 20
-33.224609375
 30
0.0
 10
38.89453125
 20
-33.3759765625
 30
0.0
 10
39.17919921875
 20
-33.578125
 30
0.0
 10
39.40625
 20
-33.8330078125
 30
0.0
 10
39.63330078125
 20
-34.08984375
 30
0.0
 10
39.8056640625
 20
-34.3876953125
 30
0.0
 10
39.923828125
 20
-34.7294921875
 30
0.0
 10
40.04150390625
 20
-35.0693359375
 30
0.0
 10
40.10009765625
 20
-35.4345703125
 30
0.0
 10
40.10009765625
 20
-35.8251953125
 30
0.0
  0
SPLINE
  5
C3
330
1F
100
AcDbEntity
  8
Layer 1
370
     0
100
AcDbSpline
210
0.0
220
0.0
230
1.0
 70
    11
 71
     3
 72
    26
 73
    22
 74
     0
 42
0.0000000001
 43
0.0000000001
 40
0.0
 40
0.0
 40
0.0
 40
0.0
 40
1.0
 40
1.0
 40
1.0
 40
2.0
 40
2.0
 40
2.0
 40
3.0
 40
3.0
 40
3.0
 40
4.0
 40
4.0
 40
4.0
 40
5.0
 40
5.0
 40
5.0
 40
6.0
 40
6.0
 40
6.0
 40
7.0
 40
7.0
 40
7.0
 40
7.0
 10
39.25927734375
 20
-35.556640625
 30
0.0
 10
39.23583984375
 20
-35.021484375
 30
0.0
 10
39.06298828125
 20
-34.576171875
 30
0.0
 10
38.7431640625
 20
-34.22265625
 30
0.0
 10
38.42236328125
 20
-33.869140625
 30
0.0
 10
37.96533203125
 20
-33.693359375
 30
0.0
 10
37.37353515625
 20
-33.693359375
 30
0.0
 10
37.09765625
 20
-33.693359375
 30
0.0
 10
36.84130859375
 20
-33.7451171875
 30
0.0
 10
36.60595703125
 20
-33.845703125
 30
0.0
 10
36.37109375
 20
-33.9482421875
 30
0.0
 10
36.16455078125
 20
-34.0859375
 30
0.0
 10
35.98583984375
 20
-34.2607421875
 30
0.0
 10
35.80712890625
 20
-34.4345703125
 30
0.0
 10
35.66455078125
 20
-34.6328125
 30
0.0
 10
35.55908203125
 20
-34.8564453125
 30
0.0
 10
35.45361328125
 20
-35.0791015625
 30
0.0
 10
35.392578125
 20
-35.3115234375
 30
0.0
 10
35.37646484375
 20
-35.556640625
 30
0.0
 10
35.37646484375
 20
-35.556640625
 30
0.0
 10
39.25927734375
 20
-35.556640625
 30
0.0
 10
39.25927734375
 20
-35.556640625
 30
0.0
  0
HATCH
  5
C4
330
1F
100
AcDbEntity
  8
Layer 1
 62
     7
420
 16777215
100
AcDbHatch
 10
0.0
 20
0.0
 30
0.0
210
0.0
220
0.0
230
1.0
  2
SOLID
 70
     1
 71
     0
 91
        2
 92
        1
 93
        1
 72
     4
 94
        3
 73
     0
 74
     1
 95
       77
 96
       73
 40
0.0
 40
0.0
 40
0.0
 40
0.0
 40
1.0
 40
1.0
 40
1.0
 40
2.0
 40
2.0
 40
2.0
 40
3.0
 40
3.0
 40
3.0
 40
4.0
 40
4.0
 40
4.0
 40
5.0
 40
5.0
 40
5.0
 40
6.0
 40
6.0
 40
6.0
 40
7.0
 40
7.0
 40
7.0
 40
8.0
 40
8.0
 40
8.0
 40
9.0
 40
9.0
 40
9.0
 40
10.0
 40
10.0
 40
10.0
 40
11.0
 40
11.0
 40
11.0
 40
12.0
 40
12.0
 40
12.0
 40
13.0
 40
13.0
 40
13.0
 40
14.0
 40
14.0
 40
14.0
 40
15.0
 40
15.0
 40
15.0
 40
16.0
 40
16.0
 40
16.0
 40
17.0
 40
17.0
 40
17.0
 40
18.0
 40
18.0
 40
18.0
 40
19.0
 40
19.0
 40
19.0
 40
20.0
 40
20.0
 40
20.0
 40
21.0
 40
21.0
 40
21.0
 40
22.0
 40
22.0
 40
22.0
 40
23.0
 40
23.0
 40
23.0
 40
24.0
 40
24.0
 40
24.0
 40
24.0
 10
40.10009765625
 20
-35.8251953125
 10
40.10009765625
 20
-35.880859375
 10
40.10009765625
 20
-35.94140625
 10
40.10009765625
 20
-36.0068359375
 10
40.10009765625
 20
-36.0712890625
 10
40.09619140625
 20
-36.1416015625
 10
40.08837890625
 20
-36.2138671875
 10
40.08837890625
 20
-36.2138671875
 10
35.3642578125
 20
-36.2138671875
 10
35.3642578125
 20
-36.2138671875
 10
35.3720703125
 20
-36.498046875
 10
35.42919921875
 20
-36.765625
 10
35.53515625
 20
-37.0185546875
 10
35.64013671875
 20
-37.2685546875
 10
35.78662109375
 20
-37.4873046875
 10
35.97314453125
 20
-37.6748046875
 10
36.16015625
 20
-37.861328125
 10
36.37890625
 20
-38.009765625
 10
36.630859375
 20
-38.1201171875
 10
36.8818359375
 20
-38.228515625
 10
37.15380859375
 20
-38.283203125
 10
37.44677734375
 20
-38.283203125
 10
37.8759765625
 20
-38.283203125
 10
38.2470703125
 20
-38.1845703125
 10
38.56005859375
 20
-37.986328125
 10
38.8720703125
 20
-37.787109375
 10
39.1103515625
 20
-37.5576171875
 10
39.2724609375
 20
-37.296875
 10
39.2724609375
 20
-37.296875
 10
39.89306640625
 20
-37.78515625
 10
39.89306640625
 20
-37.78515625
 10
39.55224609375
 20
-38.21484375
 10
39.1767578125
 20
-38.5234375
 10
38.76708984375
 20
-38.7099609375
 10
38.357421875
 20
-38.896484375
 10
37.91748046875
 20
-38.9892578125
 10
37.44677734375
 20
-38.9892578125
 10
37.0244140625
 20
-38.9892578125
 10
36.6328125
 20
-38.9150390625
 10
36.27197265625
 20
-38.7646484375
 10
35.91015625
 20
-38.6142578125
 10
35.599609375
 20
-38.4052734375
 10
35.3408203125
 20
-38.1376953125
 10
35.08056640625
 20
-37.869140625
 10
34.87548828125
 20
-37.552734375
 10
34.7255859375
 20
-37.1875
 10
34.5751953125
 20
-36.822265625
 10
34.5
 20
-36.4248046875
 10
34.5
 20
-35.9951171875
 10
34.5
 20
-35.564453125
 10
34.5732421875
 20
-35.1669921875
 10
34.7197265625
 20
-34.8017578125
 10
34.865234375
 20
-34.4365234375
 10
35.06884765625
 20
-34.1201171875
 10
35.32763671875
 20
-33.8515625
 10
35.58740234375
 20
-33.5849609375
 10
35.892578125
 20
-33.3759765625
 10
36.24072265625
 20
-33.224609375
 10
36.58984375
 20
-33.0751953125
 10
36.966796875
 20
-33.0
 10
37.37353515625
 20
-33.0
 10
37.81982421875
 20
-33.0
 10
38.21337890625
 20
-33.0751953125
 10
38.55419921875
 20
-33.224609375
 10
38.89453125
 20
-33.3759765625
 10
39.17919921875
 20
-33.578125
 10
39.40625
 20
-33.8330078125
 10
39.63330078125
 20
-34.08984375
 10
39.8056640625
 20
-34.3876953125
 10
39.923828125
 20
-34.7294921875
 10
40.04150390625
 20
-35.0693359375
 10
40.10009765625
 20
-35.4345703125
 10
40.10009765625
 20
-35.8251953125
 97
        0
 92
        1
 93
        1
 72
     4
 94
        3
 73
     0
 74
     1
 95
       26
 96
       22
 40
0.0
 40
0.0
 40
0.0
 40
0.0
 40
1.0
 40
1.0
 40
1.0
 40
2.0
 40
2.0
 40
2.0
 40
3.0
 40
3.0
 40
3.0
 40
4.0
 40
4.0
 40
4.0
 40
5.0
 40
5.0
 40
5.0
 40
6.0
 40
6.0
 40
6.0
 40
7.0
 40
7.0
 40
7.0
 40
7.0
 10
39.25927734375
 20
-35.556640625
 10
39.23583984375
 20
-35.021484375
 10
39.06298828125
 20
-34.576171875
 10
38.7431640625
 20
-34.22265625
 10
38.42236328125
 20
-33.869140625
 10
37.96533203125
 20
-33.693359375
 10
37.37353515625
 20
-33.693359375
 10
37.09765625
 20
-33.693359375
 10
36.84130859375
 20
-33.7451171875
 10
36.60595703125
 20
-33.845703125
 10
36.37109375
 20
-33.9482421875
 10
36.16455078125
 20
-34.0859375
 10
35.98583984375
 20
-34.2607421875
 10
35.80712890625
 20
-34.4345703125
 10
35.66455078125
 20
-34.6328125
 10
35.55908203125
 20
-34.8564453125
 10
35.45361328125
 20
-35.0791015625
 10
35.392578125
 20
-35.3115234375
 10
35.37646484375
 20
-35.556640625
 10
35.37646484375
 20
-35.556640625
 10
39.25927734375
 20
-35.556640625
 10
39.25927734375
 20
-35.556640625
 97
        0
 75
     2
 76
     1
 98
        0
  0
ENDSEC
  0
SECTION
  2
OBJECTS
  0
DICTIONARY
  5
C
330
0
100
AcDbDictionary
281
     1
  3
ACAD_GROUP
350
D
  3
ACAD_LAYOUT
350
1A
  3
ACAD_MLINESTYLE
350
17
  3
ACAD_PLOTSETTINGS
350
19
  3
ACAD_PLOTSTYLENAME
350
E
  3
ACAD_TABLESTYLE
350
C5
  3
ACAD_VISUALSTYLE
350
2A
  0
DICTIONARY
  5
D
102
{ACAD_REACTORS
330
C
102
}
330
C
100
AcDbDictionary
281
     1
  0
DICTIONARY
  5
1A
102
{ACAD_REACTORS
330
C
102
}
330
C
100
AcDbDictionary
281
     1
  3
Layout1
350
1E
  3
Layout2
350
26
  3
Model
350
22
  0
DICTIONARY
  5
17
102
{ACAD_REACTORS
330
C
102
}
330
C
100
AcDbDictionary
281
     1
  3
Standard
350
18
  0
DICTIONARY
  5
19
102
{ACAD_REACTORS
330
C
102
}
330
C
100
AcDbDictionary
281
     1
  0
ACDBDICTIONARYWDFLT
  5
E
102
{ACAD_REACTORS
330
C
102
}
330
C
100
AcDbDictionary
281
     1
  3
Normal
350
F
100
AcDbDictionaryWithDefault
340
F
  0
DICTIONARY
  5
C5
102
{ACAD_REACTORS
330
C
102
}
330
C
100
AcDbDictionary
281
     1
  0
DICTIONARY
  5
2A
102
{ACAD_REACTORS
330
C
102
}
330
C
100
AcDbDictionary
281
     1
  3
2dWireframe
350
2F
  3
3D Hidden
350
31
  3
3dWireframe
350
30
  3
Basic
350
32
  3
Brighten
350
36
  3
ColorChange
350
3A
  3
Conceptual
350
34
  3
Dim
350
35
  3
Facepattern
350
39
  3
Flat
350
2B
  3
FlatWithEdges
350
2C
  3
Gouraud
350
2D
  3
GouraudWithEdges
350
2E
  3
Linepattern
350
38
  3
Realistic
350
33
  3
Thicken
350
37
  0
LAYOUT
  5
1E
102
{ACAD_REACTORS
330
1A
102
}
330
1A
100
AcDbPlotSettings
  1

  2
none_device
  4

  6

 40
0.0
 41
0.0
 42
0.0
 43
0.0
 44
0.0
 45
0.0
 46
0.0
 47
0.0
 48
0.0
 49
0.0
140
0.0
141
0.0
142
1.0
143
1.0
 70
   688
 72
     0
 73
     0
 74
     5
  7

 75
    16
 76
     0
 77
     2
 78
   300
147
1.0
148
0.0
149
0.0
100
AcDbLayout
  1
Layout1
 70
     1
 71
     1
 10
0.0
 20
0.0
 11
12.0
 21
9.0
 12
0.0
 22
0.0
 32
0.0
 14
1.000000000000000E+20
 24
1.000000000000000E+20
 34
1.000000000000000E+20
 15
-1.000000000000000E+20
 25
-1.000000000000000E+20
 35
-1.000000000000000E+20
146
0.0
 13
0.0
 23
0.0
 33
0.0
 16
1.0
 26
0.0
 36
0.0
 17
0.0
 27
1.0
 37
0.0
 76
     0
330
1B
  0
LAYOUT
  5
26
102
{ACAD_REACTORS
330
1A
102
}
330
1A
100
AcDbPlotSettings
  1

  2
none_device
  4

  6

 40
0.0
 41
0.0
 42
0.0
 43
0.0
 44
0.0
 45
0.0
 46
0.0
 47
0.0
 48
0.0
 49
0.0
140
0.0
141
0.0
142
1.0
143
1.0
 70
   688
 72
     0
 73
     0
 74
     5
  7

 75
    16
 76
     0
 77
     2
 78
   300
147
1.0
148
0.0
149
0.0
100
AcDbLayout
  1
Layout2
 70
     1
 71
     2
 10
0.0
 20
0.0
 11
0.0
 21
0.0
 12
0.0
 22
0.0
 32
0.0
 14
0.0
 24
0.0
 34
0.0
 15
0.0
 25
0.0
 35
0.0
146
0.0
 13
0.0
 23
0.0
 33
0.0
 16
1.0
 26
0.0
 36
0.0
 17
0.0
 27
1.0
 37
0.0
 76
     0
330
23
  0
LAYOUT
  5
22
102
{ACAD_REACTORS
330
1A
102
}
330
1A
100
AcDbPlotSettings
  1

  2
none_device
  4

  6

 40
0.0
 41
0.0
 42
0.0
 43
0.0
 44
0.0
 45
0.0
 46
0.0
 47
0.0
 48
0.0
 49
0.0
140
0.0
141
0.0
142
1.0
143
1.0
 70
  1712
 72
     0
 73
     0
 74
     0
  7

 75
     0
 76
     0
 77
     2
 78
   300
147
1.0
148
0.0
149
0.0
100
AcDbLayout
  1
Model
 70
     1
 71
     0
 10
0.0
 20
0.0
 11
12.0
 21
9.0
 12
0.0
 22
0.0
 32
0.0
 14
1.000000000000000E+20
 24
1.000000000000000E+20
 34
1.000000000000000E+20
 15
-1.000000000000000E+20
 25
-1.000000000000000E+20
 35
-1.000000000000000E+20
146
0.0
 13
0.0
 23
0.0
 33
0.0
 16
1.0
 26
0.0
 36
0.0
 17
0.0
 27
1.0
 37
0.0
 76
     0
330
1F
331
29
  0
MLINESTYLE
  5
18
102
{ACAD_REACTORS
330
17
102
}
330
17
100
AcDbMlineStyle
  2
Standard
 70
     0
  3

 62
   256
 51
90.0
 52
90.0
 71
     2
 49
0.5
 62
   256
  6
BYLAYER
 49
-0.5
 62
   256
  6
BYLAYER
  0
ACDBPLACEHOLDER
  5
F
102
{ACAD_REACTORS
330
E
102
}
330
E
  0
VISUALSTYLE
  5
2F
102
{ACAD_REACTORS
330
2A
102
}
330
2A
100
AcDbVisualStyle
  2
2dWireframe
 70
     4
 71
     0
 72
     2
 73
     0
 90
        0
 40
-0.6
 41
-30.0
 62
     5
 63
     7
421
 16777215
 74
     1
 91
        4
 64
     7
 65
   257
 75
     1
175
     1
 42
1.0
 92
        0
 66
   257
 43
1.0
 76
     1
 77
     6
 78
     2
 67
     7
 79
     5
170
     0
171
     0
290
     0
174
     0
 93
        1
 44
0.0
173
     0
291
     0
 45
0.0
1001
ACAD
1000
AcDbSavedByObjectVersion
1070
     0
  0
VISUALSTYLE
  5
31
102
{ACAD_REACTORS
330
2A
102
}
330
2A
100
AcDbVisualStyle
  2
3D Hidden
 70
     6
 71
     1
 72
     2
 73
     2
 90
        0
 40
-0.6
 41
-30.0
 62
     5
 63
     7
421
 16777215
 74
     2
 91
        2
 64
     7
 65
   257
 75
     2
175
     1
 42
40.0
 92
        0
 66
   257
 43
1.0
 76
     1
 77
     6
 78
     2
 67
     7
 79
     3
170
     0
171
     0
290
     0
174
     0
 93
        1
 44
0.0
173
     0
291
     0
 45
0.0
1001
ACAD
1000
AcDbSavedByObjectVersion
1070
     0
  0
VISUALSTYLE
  5
30
102
{ACAD_REACTORS
330
2A
102
}
330
2A
100
AcDbVisualStyle
  2
3dWireframe
 70
     5
 71
     0
 72
     2
 73
     0
 90
        0
 40
-0.6
 41
-30.0
 62
     5
 63
     7
421
 16777215
 74
     1
 91
        4
 64
     7
 65
   257
 75
     1
175
     1
 42
1.0
 92
        0
 66
   257
 43
1.0
 76
     1
 77
     6
 78
     2
 67
     7
 79
     5
170
     0
171
     0
290
     0
174
     0
 93
        1
 44
0.0
173
     0
291
     0
 45
0.0
1001
ACAD
1000
AcDbSavedByObjectVersion
1070
     0
  0
VISUALSTYLE
  5
32
102
{ACAD_REACTORS
330
2A
102
}
330
2A
100
AcDbVisualStyle
  2
Basic
 70
     7
 71
     1
 72
     0
 73
     1
 90
        0
 40
-0.6
 41
-30.0
 62
     5
 63
     7
421
 16777215
 74
     0
 91
        4
 64
     7
 65
   257
 75
     1
175
     1
 42
1.0
 92
        8
 66
     7
 43
1.0
 76
     1
 77
     6
 78
     2
 67
     7
 79
     5
170
     0
171
     0
290
     0
174
     0
 93
        1
 44
0.0
173
     0
291
     1
 45
0.0
1001
ACAD
1000
AcDbSavedByObjectVersion
1070
     0
  0
VISUALSTYLE
  5
36
102
{ACAD_REACTORS
330
2A
102
}
330
2A
100
AcDbVisualStyle
  2
Brighten
 70
    12
 71
     2
 72
     2
 73
     0
 90
        0
 40
-0.6
 41
-30.0
 62
     5
 63
     7
421
 16777215
 74
     1
 91
        4
 64
     7
 65
   257
 75
     1
175
     1
 42
1.0
 92
        8
 66
     7
 43
1.0
 76
     1
 77
     6
 78
     2
 67
     7
 79
     5
170
     0
171
     0
290
     0
174
     0
 93
        1
 44
50.0
173
     0
291
     1
 45
0.0
1001
ACAD
1000
AcDbSavedByObjectVersion
1070
     0
  0
VISUALSTYLE
  5
3A
102
{ACAD_REACTORS
330
2A
102
}
330
2A
100
AcDbVisualStyle
  2
ColorChange
 70
    16
 71
     2
 72
     2
 73
     3
 90
        0
 40
-0.6
 41
-30.0
 62
     5
 63
     8
421
  8421504
 74
     1
 91
        4
 64
     7
 65
   257
 75
     1
175
     1
 42
1.0
 92
        8
 66
     8
424
  8421504
 43
1.0
 76
     1
 77
     6
 78
     2
 67
     7
 79
     5
170
     0
171
     0
290
     0
174
     0
 93
        1
 44
0.0
173
     0
291
     1
 45
0.0
1001
ACAD
1000
AcDbSavedByObjectVersion
1070
     0
  0
VISUALSTYLE
  5
34
102
{ACAD_REACTORS
330
2A
102
}
330
2A
100
AcDbVisualStyle
  2
Conceptual
 70
     9
 71
     3
 72
     2
 73
     0
 90
        0
 40
-0.6
 41
-30.0
 62
     5
 63
     7
421
 16777215
 74
     2
 91
        2
 64
     7
 65
   257
 75
     1
175
     1
 42
40.0
 92
        8
 66
     7
 43
1.0
 76
     1
 77
     6
 78
     2
 67
     7
 79
     3
170
     0
171
     0
290
     0
174
     0
 93
        1
 44
0.0
173
     0
291
     0
 45
0.0
1001
ACAD
1000
AcDbSavedByObjectVersion
1070
     0
  0
VISUALSTYLE
  5
35
102
{ACAD_REACTORS
330
2A
102
}
330
2A
100
AcDbVisualStyle
  2
Dim
 70
    11
 71
     2
 72
     2
 73
     0
 90
        0
 40
-0.6
 41
-30.0
 62
     5
 63
     7
421
 16777215
 74
     1
 91
        4
 64
     7
 65
   257
 75
     1
175
     1
 42
1.0
 92
        8
 66
     7
 43
1.0
 76
     1
 77
     6
 78
     2
 67
     7
 79
     5
170
     0
171
     0
290
     0
174
     0
 93
        1
 44
-50.0
173
     0
291
     1
 45
0.0
1001
ACAD
1000
AcDbSavedByObjectVersion
1070
     0
  0
VISUALSTYLE
  5
39
102
{ACAD_REACTORS
330
2A
102
}
330
2A
100
AcDbVisualStyle
  2
Facepattern
 70
    15
 71
     2
 72
     2
 73
     0
 90
        0
 40
-0.6
 41
-30.0
 62
     5
 63
     7
421
 16777215
 74
     1
 91
        4
 64
     7
 65
   257
 75
     1
175
     1
 42
1.0
 92
        8
 66
     7
 43
1.0
 76
     1
 77
     6
 78
     2
 67
     7
 79
     5
170
     0
171
     0
290
     0
174
     0
 93
        1
 44
0.0
173
     0
291
     1
 45
0.0
1001
ACAD
1000
AcDbSavedByObjectVersion
1070
     0
  0
VISUALSTYLE
  5
2B
102
{ACAD_REACTORS
330
2A
102
}
330
2A
100
AcDbVisualStyle
  2
Flat
 70
     0
 71
     2
 72
     1
 73
     1
 90
        2
 40
-0.6
 41
30.0
 62
     5
 63
     7
421
 16777215
 74
     0
 91
        4
 64
     7
 65
   257
 75
     1
175
     1
 42
1.0
 92
        8
 66
     7
 43
1.0
 76
     1
 77
     6
 78
     2
 67
     7
 79
     5
170
     0
171
     0
290
     0
174
     0
 93
       13
 44
0.0
173
     0
291
     1
 45
0.0
1001
ACAD
1000
AcDbSavedByObjectVersion
1070
     0
  0
VISUALSTYLE
  5
2C
102
{ACAD_REACTORS
330
2A
102
}
330
2A
100
AcDbVisualStyle
  2
FlatWithEdges
 70
     1
 71
     2
 72
     1
 73
     1
 90
        2
 40
-0.6
 41
30.0
 62
     5
 63
     7
421
 16777215
 74
     1
 91
        4
 64
     7
 65
   257
 75
     1
175
     1
 42
1.0
 92
        0
 66
   257
 43
1.0
 76
     1
 77
     6
 78
     2
 67
     7
 79
     5
170
     0
171
     0
290
     0
174
     0
 93
       13
 44
0.0
173
     0
291
     1
 45
0.0
1001
ACAD
1000
AcDbSavedByObjectVersion
1070
     0
  0
VISUALSTYLE
  5
2D
102
{ACAD_REACTORS
330
2A
102
}
330
2A
100
AcDbVisualStyle
  2
Gouraud
 70
     2
 71
     2
 72
     2
 73
     1
 90
        2
 40
-0.6
 41
30.0
 62
     5
 63
     7
421
 16777215
 74
     0
 91
        4
 64
     7
 65
   257
 75
     1
175
     1
 42
1.0
 92
        0
 66
     7
 43
1.0
 76
     1
 77
     6
 78
     2
 67
     7
 79
     5
170
     0
171
     0
290
     0
174
     0
 93
       13
 44
0.0
173
     0
291
     1
 45
0.0
1001
ACAD
1000
AcDbSavedByObjectVersion
1070
     0
  0
VISUALSTYLE
  5
2E
102
{ACAD_REACTORS
330
2A
102
}
330
2A
100
AcDbVisualStyle
  2
GouraudWithEdges
 70
     3
 71
     2
 72
     2
 73
     1
 90
        2
 40
-0.6
 41
30.0
 62
     5
 63
     7
421
 16777215
 74
     1
 91
        4
 64
     7
 65
   257
 75
     1
175
     1
 42
1.0
 92
        0
 66
   257
 43
1.0
 76
     1
 77
     6
 78
     2
 67
     7
 79
     5
170
     0
171
     0
290
     0
174
     0
 93
       13
 44
0.0
173
     0
291
     1
 45
0.0
1001
ACAD
1000
AcDbSavedByObjectVersion
1070
     0
  0
VISUALSTYLE
  5
38
102
{ACAD_REACTORS
330
2A
102
}
330
2A
100
AcDbVisualStyle
  2
Linepattern
 70
    14
 71
     2
 72
     2
 73
     0
 90
        0
 40
-0.6
 41
-30.0
 62
     5
 63
     7
421
 16777215
 74
     1
 91
        4
 64
     7
 65
   257
 75
     7
175
     7
 42
1.0
 92
        8
 66
     7
 43
1.0
 76
     1
 77
     6
 78
     2
 67
     7
 79
     5
170
     0
171
     0
290
     0
174
     0
 93
        1
 44
0.0
173
     0
291
     1
 45
0.0
1001
ACAD
1000
AcDbSavedByObjectVersion
1070
     0
  0
VISUALSTYLE
  5
33
102
{ACAD_REACTORS
330
2A
102
}
330
2A
100
AcDbVisualStyle
  2
Realistic
 70
     8
 71
     2
 72
     2
 73
     0
 90
        0
 40
-0.6
 41
-30.0
 62
     5
 63
     7
421
 16777215
 74
     1
 91
        0
 64
     7
 65
   257
 75
     1
175
     1
 42
1.0
 92
        8
 66
     8
424
  7895160
 43
1.0
 76
     1
 77
     6
 78
     2
 67
     7
 79
     5
170
     0
171
     0
290
     0
174
     0
 93
       13
 44
0.0
173
     0
291
     0
 45
0.0
1001
ACAD
1000
AcDbSavedByObjectVersion
1070
     0
  0
VISUALSTYLE
  5
37
102
{ACAD_REACTORS
330
2A
102
}
330
2A
100
AcDbVisualStyle
  2
Thicken
 70
    13
 71
     2
 72
     2
 73
     0
 90
        0
 40
-0.6
 41
-30.0
 62
     5
 63
     7
421
 16777215
 74
     1
 91
        4
 64
     7
 65
   257
 75
     1
175
     1
 42
1.0
 92
       12
 66
     7
 43
1.0
 76
     1
 77
     6
 78
     2
 67
     7
 79
     5
170
     0
171
     0
290
     0
174
     0
 93
        1
 44
0.0
173
     0
291
     1
 45
0.0
1001
ACAD
1000
AcDbSavedByObjectVersion
1070
     0
  0
ENDSEC
  0
EOF
